<svg xmlns="http://www.w3.org/2000/svg" xmlns:xlink="http://www.w3.org/1999/xlink" width="808.194" height="199.585" viewBox="0 0 808.194 199.585"><defs><style>.a{fill:#fff;}.b{font-size:16px;font-family:NotoSansKR-Bold, Noto Sans KR;font-weight:700;}.c{fill:none;}.d{font-size:13px;}.e{fill:#cbcdce;}.f,.g,.h{stroke:none;}.g{fill:#98a7c2;}.h{fill:rgba(0,0,0,0.1);}.i{filter:url(#k);}.j{filter:url(#i);}.k{filter:url(#g);}.l{filter:url(#e);}.m{filter:url(#c);}.n{filter:url(#a);}</style><filter id="a" x="0" y="0.54" width="131.111" height="131.111" filterUnits="userSpaceOnUse"><feOffset dy="3" input="SourceAlpha"/><feGaussianBlur stdDeviation="3" result="b"/><feFlood flood-opacity="0.161"/><feComposite operator="in" in2="b"/><feComposite in="SourceGraphic"/></filter><filter id="c" x="135.822" y="68.475" width="131.111" height="131.111" filterUnits="userSpaceOnUse"><feOffset dy="3" input="SourceAlpha"/><feGaussianBlur stdDeviation="3" result="d"/><feFlood flood-opacity="0.161"/><feComposite operator="in" in2="d"/><feComposite in="SourceGraphic"/></filter><filter id="e" x="270.631" y="0.564" width="131.111" height="131.111" filterUnits="userSpaceOnUse"><feOffset dy="3" input="SourceAlpha"/><feGaussianBlur stdDeviation="3" result="f"/><feFlood flood-opacity="0.161"/><feComposite operator="in" in2="f"/><feComposite in="SourceGraphic"/></filter><filter id="g" x="677.084" y="68.475" width="131.111" height="131.111" filterUnits="userSpaceOnUse"><feOffset dy="3" input="SourceAlpha"/><feGaussianBlur stdDeviation="3" result="h"/><feFlood flood-opacity="0.161"/><feComposite operator="in" in2="h"/><feComposite in="SourceGraphic"/></filter><filter id="i" x="406.453" y="68.475" width="131.111" height="131.111" filterUnits="userSpaceOnUse"><feOffset dy="3" input="SourceAlpha"/><feGaussianBlur stdDeviation="3" result="j"/><feFlood flood-opacity="0.161"/><feComposite operator="in" in2="j"/><feComposite in="SourceGraphic"/></filter><filter id="k" x="541.261" y="0.564" width="131.111" height="131.111" filterUnits="userSpaceOnUse"><feOffset dy="3" input="SourceAlpha"/><feGaussianBlur stdDeviation="3" result="l"/><feFlood flood-opacity="0.161"/><feComposite operator="in" in2="l"/><feComposite in="SourceGraphic"/></filter></defs><g transform="translate(-766.296 -1321.714)"><g transform="translate(768.894 1321.714)"><g class="n" transform="matrix(1, 0, 0, 1, -2.6, 0)"><g class="a" transform="translate(9 6.54)"><path class="f" d="M 56.55537796020508 112.1107635498047 C 49.05500793457031 112.1107635498047 41.77953338623047 110.6420211791992 34.93102264404297 107.745361328125 C 31.63936233520508 106.3531036376953 28.46445465087891 104.6298065185547 25.49453163146973 102.6233596801758 C 22.55256271362305 100.6358108520508 19.78603935241699 98.35321044921875 17.27179336547852 95.83896636962891 C 14.75754737854004 93.32471466064453 12.47494697570801 90.55819702148438 10.48739337921143 87.61622619628906 C 8.480962753295898 84.64630126953125 6.757670402526855 81.47140502929688 5.365408897399902 78.17973327636719 C 2.468747138977051 71.33123779296875 1.000008702278137 64.05574798583984 1.000008702278137 56.55537796020508 C 1.000008702278137 49.05500793457031 2.468747138977051 41.77951812744141 5.365408897399902 34.93102264404297 C 6.757670402526855 31.63936233520508 8.480962753295898 28.46445465087891 10.48739337921143 25.49453163146973 C 12.47494697570801 22.55256271362305 14.75754737854004 19.78603935241699 17.27179336547852 17.27179336547852 C 19.78603935241699 14.75754737854004 22.55256271362305 12.47494697570801 25.49453163146973 10.48739337921143 C 28.46445465087891 8.480962753295898 31.63936233520508 6.757670402526855 34.93102264404297 5.365408897399902 C 41.77951812744141 2.468747138977051 49.05500793457031 1.000008702278137 56.55537796020508 1.000008702278137 C 64.05574798583984 1.000008702278137 71.33123779296875 2.468747138977051 78.17973327636719 5.365408897399902 C 81.47140502929688 6.757670402526855 84.64630126953125 8.480962753295898 87.61622619628906 10.48739337921143 C 90.55819702148438 12.47494697570801 93.32471466064453 14.75754737854004 95.83896636962891 17.27179336547852 C 98.35321044921875 19.78603935241699 100.6358108520508 22.55256271362305 102.6233596801758 25.49453163146973 C 104.6298065185547 28.46445465087891 106.3531036376953 31.63936233520508 107.745361328125 34.93102264404297 C 110.6420211791992 41.77953338623047 112.1107635498047 49.05500793457031 112.1107635498047 56.55537796020508 C 112.1107635498047 64.05574798583984 110.6420211791992 71.33123779296875 107.745361328125 78.17973327636719 C 106.3531036376953 81.47140502929688 104.6298065185547 84.64630126953125 102.6233596801758 87.61622619628906 C 100.6358108520508 90.55819702148438 98.35321044921875 93.32471466064453 95.83896636962891 95.83896636962891 C 93.32471466064453 98.35321044921875 90.55819702148438 100.6358108520508 87.61622619628906 102.6233596801758 C 84.64630126953125 104.6298065185547 81.47140502929688 106.3531036376953 78.17973327636719 107.745361328125 C 71.33123779296875 110.6420211791992 64.05574798583984 112.1107635498047 56.55537796020508 112.1107635498047 Z"/><path class="g" d="M 56.55537796020508 1.999992370605469 C 49.18955993652344 1.999992370605469 42.04514312744141 3.442146301269531 35.32057952880859 6.286415100097656 C 32.08837890625 7.653511047363281 28.97076416015625 9.345710754394531 26.05434417724609 11.31600952148438 C 23.16510772705078 13.2679443359375 20.44814300537109 15.50965881347656 17.97889709472656 17.97889709472656 C 15.50965881347656 20.44814300537109 13.2679443359375 23.16510772705078 11.31600952148438 26.05434417724609 C 9.345710754394531 28.97076416015625 7.653511047363281 32.08837890625 6.286415100097656 35.32057952880859 C 3.442146301269531 42.04514312744141 1.999992370605469 49.18955993652344 1.999992370605469 56.55537796020508 C 1.999992370605469 63.92119598388672 3.442146301269531 71.06561279296875 6.286415100097656 77.79017639160156 C 7.653511047363281 81.02237701416016 9.345710754394531 84.13999938964844 11.31600952148438 87.05641174316406 C 13.2679443359375 89.94564819335938 15.50965881347656 92.66261291503906 17.97889709472656 95.13185882568359 C 20.44814300537109 97.60109710693359 23.16510772705078 99.84281158447266 26.05434417724609 101.7947463989258 C 28.97076416015625 103.7650451660156 32.08837890625 105.4572448730469 35.32057952880859 106.8243408203125 C 42.04514312744141 109.6686096191406 49.18955993652344 111.1107635498047 56.55537796020508 111.1107635498047 C 63.92119598388672 111.1107635498047 71.06561279296875 109.6686096191406 77.79017639160156 106.8243408203125 C 81.02237701416016 105.4572448730469 84.13999938964844 103.7650451660156 87.05641174316406 101.7947463989258 C 89.94564819335938 99.84281158447266 92.66261291503906 97.60109710693359 95.13185882568359 95.13185882568359 C 97.60109710693359 92.66261291503906 99.84281158447266 89.94564819335938 101.7947463989258 87.05641174316406 C 103.7650451660156 84.13999938964844 105.4572448730469 81.02237701416016 106.8243408203125 77.79017639160156 C 109.6686096191406 71.06561279296875 111.1107635498047 63.92119598388672 111.1107635498047 56.55537796020508 C 111.1107635498047 49.18955993652344 109.6686096191406 42.04514312744141 106.8243408203125 35.32057952880859 C 105.4572448730469 32.08837890625 103.7650451660156 28.97076416015625 101.7947463989258 26.05434417724609 C 99.84281158447266 23.16510772705078 97.60109710693359 20.44814300537109 95.13185882568359 17.97889709472656 C 92.66261291503906 15.50965881347656 89.94564819335938 13.2679443359375 87.05641174316406 11.31600952148438 C 84.13999938964844 9.345710754394531 81.02237701416016 7.653511047363281 77.79017639160156 6.286415100097656 C 71.06561279296875 3.442146301269531 63.92119598388672 1.999992370605469 56.55537796020508 1.999992370605469 M 56.55537796020508 -7.62939453125e-06 C 87.79004669189453 -7.62939453125e-06 113.1107635498047 25.32070922851562 113.1107635498047 56.55537796020508 C 113.1107635498047 87.79004669189453 87.79004669189453 113.1107635498047 56.55537796020508 113.1107635498047 C 25.32070922851562 113.1107635498047 -7.62939453125e-06 87.79004669189453 -7.62939453125e-06 56.55537796020508 C -7.62939453125e-06 25.32070922851562 25.32070922851562 -7.62939453125e-06 56.55537796020508 -7.62939453125e-06 Z"/></g></g><text class="b" transform="translate(1.781 49.54)"><tspan x="24.227" y="19">지속적 관찰</tspan></text><g class="c"><path class="f" d="M62.958,0A62.958,62.958,0,1,1,0,62.958,62.958,62.958,0,0,1,62.958,0Z"/><path class="h" d="M 62.9578742980957 0.9999923706054688 C 54.59317779541016 0.9999923706054688 46.47920989990234 2.638008117675781 38.84137725830078 5.868537902832031 C 35.17034149169922 7.421257019042969 31.62953948974609 9.343154907226562 28.31734466552734 11.58084106445312 C 25.03633880615234 13.79742431640625 21.95100402832031 16.34307098388672 19.14704132080078 19.14704132080078 C 16.34307098388672 21.95100402832031 13.79742431640625 25.03633880615234 11.58084106445312 28.31734466552734 C 9.343154907226562 31.62953948974609 7.421257019042969 35.17034149169922 5.868537902832031 38.84137725830078 C 2.638008117675781 46.47920989990234 0.9999923706054688 54.59317779541016 0.9999923706054688 62.9578742980957 C 0.9999923706054688 71.32257080078125 2.638008117675781 79.43653869628906 5.868537902832031 87.07437133789062 C 7.421257019042969 90.74540710449219 9.343154907226562 94.28620910644531 11.58084106445312 97.59840393066406 C 13.79742431640625 100.8794097900391 16.34307098388672 103.9647369384766 19.14704132080078 106.7687072753906 C 21.95100402832031 109.5726776123047 25.03633880615234 112.1183090209961 28.31734466552734 114.3349075317383 C 31.62953948974609 116.5725936889648 35.17034149169922 118.4944763183594 38.84137725830078 120.0471878051758 C 46.47920989990234 123.2777252197266 54.59317779541016 124.9157409667969 62.9578742980957 124.9157409667969 C 71.32257080078125 124.9157409667969 79.43653869628906 123.2777252197266 87.07437133789062 120.0471878051758 C 90.74540710449219 118.4944763183594 94.28620910644531 116.5725936889648 97.59840393066406 114.3349075317383 C 100.8794097900391 112.1183090209961 103.9647369384766 109.5726776123047 106.7687072753906 106.7687072753906 C 109.5726776123047 103.9647369384766 112.1183090209961 100.8794097900391 114.3349075317383 97.59840393066406 C 116.5725936889648 94.28620910644531 118.4944763183594 90.74540710449219 120.0471878051758 87.07437133789062 C 123.2777252197266 79.43653869628906 124.9157409667969 71.32257080078125 124.9157409667969 62.9578742980957 C 124.9157409667969 54.59317779541016 123.2777252197266 46.47920989990234 120.0471878051758 38.84137725830078 C 118.4944763183594 35.17034149169922 116.5725936889648 31.62953948974609 114.3349075317383 28.31734466552734 C 112.1183090209961 25.03633880615234 109.5726776123047 21.95100402832031 106.7687072753906 19.14704132080078 C 103.9647369384766 16.34307098388672 100.8794097900391 13.79742431640625 97.59840393066406 11.58084106445312 C 94.28620910644531 9.343154907226562 90.74540710449219 7.421257019042969 87.07437133789062 5.868537902832031 C 79.43653869628906 2.638008117675781 71.32257080078125 0.9999923706054688 62.9578742980957 0.9999923706054688 M 62.9578742980957 -7.62939453125e-06 C 97.72856140136719 -7.62939453125e-06 125.9157409667969 28.18721008300781 125.9157409667969 62.9578742980957 C 125.9157409667969 97.72856140136719 97.72856140136719 125.9157409667969 62.9578742980957 125.9157409667969 C 28.18721008300781 125.9157409667969 -7.62939453125e-06 97.72856140136719 -7.62939453125e-06 62.9578742980957 C -7.62939453125e-06 28.18721008300781 28.18721008300781 -7.62939453125e-06 62.9578742980957 -7.62939453125e-06 Z"/></g></g><g transform="translate(904.715 1389.786)"><g class="m" transform="matrix(1, 0, 0, 1, -138.42, -68.07)"><g class="a" transform="translate(144.82 74.47)"><path class="f" d="M 56.55537796020508 112.1107635498047 C 49.05500793457031 112.1107635498047 41.77953338623047 110.6420211791992 34.93102264404297 107.745361328125 C 31.63936233520508 106.3531036376953 28.46445465087891 104.6298065185547 25.49453163146973 102.6233596801758 C 22.55256271362305 100.6358108520508 19.78603935241699 98.35321044921875 17.27179336547852 95.83896636962891 C 14.75754737854004 93.32471466064453 12.47494697570801 90.55819702148438 10.48739337921143 87.61622619628906 C 8.480962753295898 84.64630126953125 6.757670402526855 81.47140502929688 5.365408897399902 78.17973327636719 C 2.468747138977051 71.33123779296875 1.000008702278137 64.05574798583984 1.000008702278137 56.55537796020508 C 1.000008702278137 49.05500793457031 2.468747138977051 41.77951812744141 5.365408897399902 34.93102264404297 C 6.757670402526855 31.63936233520508 8.480962753295898 28.46445465087891 10.48739337921143 25.49453163146973 C 12.47494697570801 22.55256271362305 14.75754737854004 19.78603935241699 17.27179336547852 17.27179336547852 C 19.78603935241699 14.75754737854004 22.55256271362305 12.47494697570801 25.49453163146973 10.48739337921143 C 28.46445465087891 8.480962753295898 31.63936233520508 6.757670402526855 34.93102264404297 5.365408897399902 C 41.77951812744141 2.468747138977051 49.05500793457031 1.000008702278137 56.55537796020508 1.000008702278137 C 64.05574798583984 1.000008702278137 71.33123779296875 2.468747138977051 78.17973327636719 5.365408897399902 C 81.47140502929688 6.757670402526855 84.64630126953125 8.480962753295898 87.61622619628906 10.48739337921143 C 90.55819702148438 12.47494697570801 93.32471466064453 14.75754737854004 95.83896636962891 17.27179336547852 C 98.35321044921875 19.78603935241699 100.6358108520508 22.55256271362305 102.6233596801758 25.49453163146973 C 104.6298065185547 28.46445465087891 106.3531036376953 31.63936233520508 107.745361328125 34.93102264404297 C 110.6420211791992 41.77953338623047 112.1107635498047 49.05500793457031 112.1107635498047 56.55537796020508 C 112.1107635498047 64.05574798583984 110.6420211791992 71.33123779296875 107.745361328125 78.17973327636719 C 106.3531036376953 81.47140502929688 104.6298065185547 84.64630126953125 102.6233596801758 87.61622619628906 C 100.6358108520508 90.55819702148438 98.35321044921875 93.32471466064453 95.83896636962891 95.83896636962891 C 93.32471466064453 98.35321044921875 90.55819702148438 100.6358108520508 87.61622619628906 102.6233596801758 C 84.64630126953125 104.6298065185547 81.47140502929688 106.3531036376953 78.17973327636719 107.745361328125 C 71.33123779296875 110.6420211791992 64.05574798583984 112.1107635498047 56.55537796020508 112.1107635498047 Z"/><path class="g" d="M 56.55537796020508 1.999992370605469 C 49.18955993652344 1.999992370605469 42.04514312744141 3.442146301269531 35.32057952880859 6.286415100097656 C 32.08837890625 7.653511047363281 28.97076416015625 9.345710754394531 26.05434417724609 11.31600952148438 C 23.16510772705078 13.2679443359375 20.44814300537109 15.50965881347656 17.97889709472656 17.97889709472656 C 15.50965881347656 20.44814300537109 13.2679443359375 23.16510772705078 11.31600952148438 26.05434417724609 C 9.345710754394531 28.97076416015625 7.653511047363281 32.08837890625 6.286415100097656 35.32057952880859 C 3.442146301269531 42.04514312744141 1.999992370605469 49.18955993652344 1.999992370605469 56.55537796020508 C 1.999992370605469 63.92119598388672 3.442146301269531 71.06561279296875 6.286415100097656 77.79017639160156 C 7.653511047363281 81.02237701416016 9.345710754394531 84.13999938964844 11.31600952148438 87.05641174316406 C 13.2679443359375 89.94564819335938 15.50965881347656 92.66261291503906 17.97889709472656 95.13185882568359 C 20.44814300537109 97.60109710693359 23.16510772705078 99.84281158447266 26.05434417724609 101.7947463989258 C 28.97076416015625 103.7650451660156 32.08837890625 105.4572448730469 35.32057952880859 106.8243408203125 C 42.04514312744141 109.6686096191406 49.18955993652344 111.1107635498047 56.55537796020508 111.1107635498047 C 63.92119598388672 111.1107635498047 71.06561279296875 109.6686096191406 77.79017639160156 106.8243408203125 C 81.02237701416016 105.4572448730469 84.13999938964844 103.7650451660156 87.05641174316406 101.7947463989258 C 89.94564819335938 99.84281158447266 92.66261291503906 97.60109710693359 95.13185882568359 95.13185882568359 C 97.60109710693359 92.66261291503906 99.84281158447266 89.94564819335938 101.7947463989258 87.05641174316406 C 103.7650451660156 84.13999938964844 105.4572448730469 81.02237701416016 106.8243408203125 77.79017639160156 C 109.6686096191406 71.06561279296875 111.1107635498047 63.92119598388672 111.1107635498047 56.55537796020508 C 111.1107635498047 49.18955993652344 109.6686096191406 42.04514312744141 106.8243408203125 35.32057952880859 C 105.4572448730469 32.08837890625 103.7650451660156 28.97076416015625 101.7947463989258 26.05434417724609 C 99.84281158447266 23.16510772705078 97.60109710693359 20.44814300537109 95.13185882568359 17.97889709472656 C 92.66261291503906 15.50965881347656 89.94564819335938 13.2679443359375 87.05641174316406 11.31600952148438 C 84.13999938964844 9.345710754394531 81.02237701416016 7.653511047363281 77.79017639160156 6.286415100097656 C 71.06561279296875 3.442146301269531 63.92119598388672 1.999992370605469 56.55537796020508 1.999992370605469 M 56.55537796020508 -7.62939453125e-06 C 87.79004669189453 -7.62939453125e-06 113.1107635498047 25.32070922851562 113.1107635498047 56.55537796020508 C 113.1107635498047 87.79004669189453 87.79004669189453 113.1107635498047 56.55537796020508 113.1107635498047 C 25.32070922851562 113.1107635498047 -7.62939453125e-06 87.79004669189453 -7.62939453125e-06 56.55537796020508 C -7.62939453125e-06 25.32070922851562 25.32070922851562 -7.62939453125e-06 56.55537796020508 -7.62939453125e-06 Z"/></g></g><text class="b" transform="translate(0 38.699)"><tspan x="33.356" y="19">토폴로지</tspan><tspan class="d"><tspan x="16.542" y="38">Metrics&amp;Trace</tspan></tspan></text><g class="c" transform="translate(0.001)"><path class="f" d="M62.958,0A62.958,62.958,0,1,1,0,62.958,62.958,62.958,0,0,1,62.958,0Z"/><path class="h" d="M 62.9578742980957 0.9999923706054688 C 54.59317779541016 0.9999923706054688 46.47920989990234 2.638008117675781 38.84137725830078 5.868537902832031 C 35.17034149169922 7.421257019042969 31.62953948974609 9.343154907226562 28.31734466552734 11.58084106445312 C 25.03633880615234 13.79742431640625 21.95100402832031 16.34307098388672 19.14704132080078 19.14704132080078 C 16.34307098388672 21.95100402832031 13.79742431640625 25.03633880615234 11.58084106445312 28.31734466552734 C 9.343154907226562 31.62953948974609 7.421257019042969 35.17034149169922 5.868537902832031 38.84137725830078 C 2.638008117675781 46.47920989990234 0.9999923706054688 54.59317779541016 0.9999923706054688 62.9578742980957 C 0.9999923706054688 71.32257080078125 2.638008117675781 79.43653869628906 5.868537902832031 87.07437133789062 C 7.421257019042969 90.74540710449219 9.343154907226562 94.28620910644531 11.58084106445312 97.59840393066406 C 13.79742431640625 100.8794097900391 16.34307098388672 103.9647369384766 19.14704132080078 106.7687072753906 C 21.95100402832031 109.5726776123047 25.03633880615234 112.1183090209961 28.31734466552734 114.3349075317383 C 31.62953948974609 116.5725936889648 35.17034149169922 118.4944763183594 38.84137725830078 120.0471878051758 C 46.47920989990234 123.2777252197266 54.59317779541016 124.9157409667969 62.9578742980957 124.9157409667969 C 71.32257080078125 124.9157409667969 79.43653869628906 123.2777252197266 87.07437133789062 120.0471878051758 C 90.74540710449219 118.4944763183594 94.28620910644531 116.5725936889648 97.59840393066406 114.3349075317383 C 100.8794097900391 112.1183090209961 103.9647369384766 109.5726776123047 106.7687072753906 106.7687072753906 C 109.5726776123047 103.9647369384766 112.1183090209961 100.8794097900391 114.3349075317383 97.59840393066406 C 116.5725936889648 94.28620910644531 118.4944763183594 90.74540710449219 120.0471878051758 87.07437133789062 C 123.2777252197266 79.43653869628906 124.9157409667969 71.32257080078125 124.9157409667969 62.9578742980957 C 124.9157409667969 54.59317779541016 123.2777252197266 46.47920989990234 120.0471878051758 38.84137725830078 C 118.4944763183594 35.17034149169922 116.5725936889648 31.62953948974609 114.3349075317383 28.31734466552734 C 112.1183090209961 25.03633880615234 109.5726776123047 21.95100402832031 106.7687072753906 19.14704132080078 C 103.9647369384766 16.34307098388672 100.8794097900391 13.79742431640625 97.59840393066406 11.58084106445312 C 94.28620910644531 9.343154907226562 90.74540710449219 7.421257019042969 87.07437133789062 5.868537902832031 C 79.43653869628906 2.638008117675781 71.32257080078125 0.9999923706054688 62.9578742980957 0.9999923706054688 M 62.9578742980957 -7.62939453125e-06 C 97.72856140136719 -7.62939453125e-06 125.9157409667969 28.18721008300781 125.9157409667969 62.9578742980957 C 125.9157409667969 97.72856140136719 97.72856140136719 125.9157409667969 62.9578742980957 125.9157409667969 C 28.18721008300781 125.9157409667969 -7.62939453125e-06 97.72856140136719 -7.62939453125e-06 62.9578742980957 C -7.62939453125e-06 28.18721008300781 28.18721008300781 -7.62939453125e-06 62.9578742980957 -7.62939453125e-06 Z"/></g></g><g transform="translate(1039.524 1321.875)"><g class="l" transform="matrix(1, 0, 0, 1, -273.23, -0.16)"><g class="a" transform="translate(279.63 6.56)"><path class="f" d="M 56.55537796020508 112.1107635498047 C 49.05500793457031 112.1107635498047 41.77953338623047 110.6420211791992 34.93102264404297 107.745361328125 C 31.63936233520508 106.3531036376953 28.46445465087891 104.6298065185547 25.49453163146973 102.6233596801758 C 22.55256271362305 100.6358108520508 19.78603935241699 98.35321044921875 17.27179336547852 95.83896636962891 C 14.75754737854004 93.32471466064453 12.47494697570801 90.55819702148438 10.48739337921143 87.61622619628906 C 8.480962753295898 84.64630126953125 6.757670402526855 81.47140502929688 5.365408897399902 78.17973327636719 C 2.468747138977051 71.33123779296875 1.000008702278137 64.05574798583984 1.000008702278137 56.55537796020508 C 1.000008702278137 49.05500793457031 2.468747138977051 41.77951812744141 5.365408897399902 34.93102264404297 C 6.757670402526855 31.63936233520508 8.480962753295898 28.46445465087891 10.48739337921143 25.49453163146973 C 12.47494697570801 22.55256271362305 14.75754737854004 19.78603935241699 17.27179336547852 17.27179336547852 C 19.78603935241699 14.75754737854004 22.55256271362305 12.47494697570801 25.49453163146973 10.48739337921143 C 28.46445465087891 8.480962753295898 31.63936233520508 6.757670402526855 34.93102264404297 5.365408897399902 C 41.77951812744141 2.468747138977051 49.05500793457031 1.000008702278137 56.55537796020508 1.000008702278137 C 64.05574798583984 1.000008702278137 71.33123779296875 2.468747138977051 78.17973327636719 5.365408897399902 C 81.47140502929688 6.757670402526855 84.64630126953125 8.480962753295898 87.61622619628906 10.48739337921143 C 90.55819702148438 12.47494697570801 93.32471466064453 14.75754737854004 95.83896636962891 17.27179336547852 C 98.35321044921875 19.78603935241699 100.6358108520508 22.55256271362305 102.6233596801758 25.49453163146973 C 104.6298065185547 28.46445465087891 106.3531036376953 31.63936233520508 107.745361328125 34.93102264404297 C 110.6420211791992 41.77953338623047 112.1107635498047 49.05500793457031 112.1107635498047 56.55537796020508 C 112.1107635498047 64.05574798583984 110.6420211791992 71.33123779296875 107.745361328125 78.17973327636719 C 106.3531036376953 81.47140502929688 104.6298065185547 84.64630126953125 102.6233596801758 87.61622619628906 C 100.6358108520508 90.55819702148438 98.35321044921875 93.32471466064453 95.83896636962891 95.83896636962891 C 93.32471466064453 98.35321044921875 90.55819702148438 100.6358108520508 87.61622619628906 102.6233596801758 C 84.64630126953125 104.6298065185547 81.47140502929688 106.3531036376953 78.17973327636719 107.745361328125 C 71.33123779296875 110.6420211791992 64.05574798583984 112.1107635498047 56.55537796020508 112.1107635498047 Z"/><path class="g" d="M 56.55537796020508 1.999992370605469 C 49.18955993652344 1.999992370605469 42.04514312744141 3.442146301269531 35.32057952880859 6.286415100097656 C 32.08837890625 7.653511047363281 28.97076416015625 9.345710754394531 26.05434417724609 11.31600952148438 C 23.16510772705078 13.2679443359375 20.44814300537109 15.50965881347656 17.97889709472656 17.97889709472656 C 15.50965881347656 20.44814300537109 13.2679443359375 23.16510772705078 11.31600952148438 26.05434417724609 C 9.345710754394531 28.97076416015625 7.653511047363281 32.08837890625 6.286415100097656 35.32057952880859 C 3.442146301269531 42.04514312744141 1.999992370605469 49.18955993652344 1.999992370605469 56.55537796020508 C 1.999992370605469 63.92119598388672 3.442146301269531 71.06561279296875 6.286415100097656 77.79017639160156 C 7.653511047363281 81.02237701416016 9.345710754394531 84.13999938964844 11.31600952148438 87.05641174316406 C 13.2679443359375 89.94564819335938 15.50965881347656 92.66261291503906 17.97889709472656 95.13185882568359 C 20.44814300537109 97.60109710693359 23.16510772705078 99.84281158447266 26.05434417724609 101.7947463989258 C 28.97076416015625 103.7650451660156 32.08837890625 105.4572448730469 35.32057952880859 106.8243408203125 C 42.04514312744141 109.6686096191406 49.18955993652344 111.1107635498047 56.55537796020508 111.1107635498047 C 63.92119598388672 111.1107635498047 71.06561279296875 109.6686096191406 77.79017639160156 106.8243408203125 C 81.02237701416016 105.4572448730469 84.13999938964844 103.7650451660156 87.05641174316406 101.7947463989258 C 89.94564819335938 99.84281158447266 92.66261291503906 97.60109710693359 95.13185882568359 95.13185882568359 C 97.60109710693359 92.66261291503906 99.84281158447266 89.94564819335938 101.7947463989258 87.05641174316406 C 103.7650451660156 84.13999938964844 105.4572448730469 81.02237701416016 106.8243408203125 77.79017639160156 C 109.6686096191406 71.06561279296875 111.1107635498047 63.92119598388672 111.1107635498047 56.55537796020508 C 111.1107635498047 49.18955993652344 109.6686096191406 42.04514312744141 106.8243408203125 35.32057952880859 C 105.4572448730469 32.08837890625 103.7650451660156 28.97076416015625 101.7947463989258 26.05434417724609 C 99.84281158447266 23.16510772705078 97.60109710693359 20.44814300537109 95.13185882568359 17.97889709472656 C 92.66261291503906 15.50965881347656 89.94564819335938 13.2679443359375 87.05641174316406 11.31600952148438 C 84.13999938964844 9.345710754394531 81.02237701416016 7.653511047363281 77.79017639160156 6.286415100097656 C 71.06561279296875 3.442146301269531 63.92119598388672 1.999992370605469 56.55537796020508 1.999992370605469 M 56.55537796020508 -7.62939453125e-06 C 87.79004669189453 -7.62939453125e-06 113.1107635498047 25.32070922851562 113.1107635498047 56.55537796020508 C 113.1107635498047 87.79004669189453 87.79004669189453 113.1107635498047 56.55537796020508 113.1107635498047 C 25.32070922851562 113.1107635498047 -7.62939453125e-06 87.79004669189453 -7.62939453125e-06 56.55537796020508 C -7.62939453125e-06 25.32070922851562 25.32070922851562 -7.62939453125e-06 56.55537796020508 -7.62939453125e-06 Z"/></g></g><text class="b" transform="translate(6.402 49.378)"><tspan x="41.013" y="19">경량</tspan></text><g class="c"><path class="f" d="M62.958,0A62.958,62.958,0,1,1,0,62.958,62.958,62.958,0,0,1,62.958,0Z"/><path class="h" d="M 62.9578742980957 0.9999923706054688 C 54.59317779541016 0.9999923706054688 46.47920989990234 2.638008117675781 38.84137725830078 5.868537902832031 C 35.17034149169922 7.421257019042969 31.62953948974609 9.343154907226562 28.31734466552734 11.58084106445312 C 25.03633880615234 13.79742431640625 21.95100402832031 16.34307098388672 19.14704132080078 19.14704132080078 C 16.34307098388672 21.95100402832031 13.79742431640625 25.03633880615234 11.58084106445312 28.31734466552734 C 9.343154907226562 31.62953948974609 7.421257019042969 35.17034149169922 5.868537902832031 38.84137725830078 C 2.638008117675781 46.47920989990234 0.9999923706054688 54.59317779541016 0.9999923706054688 62.9578742980957 C 0.9999923706054688 71.32257080078125 2.638008117675781 79.43653869628906 5.868537902832031 87.07437133789062 C 7.421257019042969 90.74540710449219 9.343154907226562 94.28620910644531 11.58084106445312 97.59840393066406 C 13.79742431640625 100.8794097900391 16.34307098388672 103.9647369384766 19.14704132080078 106.7687072753906 C 21.95100402832031 109.5726776123047 25.03633880615234 112.1183090209961 28.31734466552734 114.3349075317383 C 31.62953948974609 116.5725936889648 35.17034149169922 118.4944763183594 38.84137725830078 120.0471878051758 C 46.47920989990234 123.2777252197266 54.59317779541016 124.9157409667969 62.9578742980957 124.9157409667969 C 71.32257080078125 124.9157409667969 79.43653869628906 123.2777252197266 87.07437133789062 120.0471878051758 C 90.74540710449219 118.4944763183594 94.28620910644531 116.5725936889648 97.59840393066406 114.3349075317383 C 100.8794097900391 112.1183090209961 103.9647369384766 109.5726776123047 106.7687072753906 106.7687072753906 C 109.5726776123047 103.9647369384766 112.1183090209961 100.8794097900391 114.3349075317383 97.59840393066406 C 116.5725936889648 94.28620910644531 118.4944763183594 90.74540710449219 120.0471878051758 87.07437133789062 C 123.2777252197266 79.43653869628906 124.9157409667969 71.32257080078125 124.9157409667969 62.9578742980957 C 124.9157409667969 54.59317779541016 123.2777252197266 46.47920989990234 120.0471878051758 38.84137725830078 C 118.4944763183594 35.17034149169922 116.5725936889648 31.62953948974609 114.3349075317383 28.31734466552734 C 112.1183090209961 25.03633880615234 109.5726776123047 21.95100402832031 106.7687072753906 19.14704132080078 C 103.9647369384766 16.34307098388672 100.8794097900391 13.79742431640625 97.59840393066406 11.58084106445312 C 94.28620910644531 9.343154907226562 90.74540710449219 7.421257019042969 87.07437133789062 5.868537902832031 C 79.43653869628906 2.638008117675781 71.32257080078125 0.9999923706054688 62.9578742980957 0.9999923706054688 M 62.9578742980957 -7.62939453125e-06 C 97.72856140136719 -7.62939453125e-06 125.9157409667969 28.18721008300781 125.9157409667969 62.9578742980957 C 125.9157409667969 97.72856140136719 97.72856140136719 125.9157409667969 62.9578742980957 125.9157409667969 C 28.18721008300781 125.9157409667969 -7.62939453125e-06 97.72856140136719 -7.62939453125e-06 62.9578742980957 C -7.62939453125e-06 28.18721008300781 28.18721008300781 -7.62939453125e-06 62.9578742980957 -7.62939453125e-06 Z"/></g></g><g transform="translate(1445.977 1389.786)"><g class="k" transform="matrix(1, 0, 0, 1, -679.68, -68.07)"><g class="a" transform="translate(686.08 74.47)"><path class="f" d="M 56.55537796020508 112.1107635498047 C 49.05500793457031 112.1107635498047 41.77953338623047 110.6420211791992 34.93102264404297 107.745361328125 C 31.63936233520508 106.3531036376953 28.46445465087891 104.6298065185547 25.49453163146973 102.6233596801758 C 22.55256271362305 100.6358108520508 19.78603935241699 98.35321044921875 17.27179336547852 95.83896636962891 C 14.75754737854004 93.32471466064453 12.47494697570801 90.55819702148438 10.48739337921143 87.61622619628906 C 8.480962753295898 84.64630126953125 6.757670402526855 81.47140502929688 5.365408897399902 78.17973327636719 C 2.468747138977051 71.33123779296875 1.000008702278137 64.05574798583984 1.000008702278137 56.55537796020508 C 1.000008702278137 49.05500793457031 2.468747138977051 41.77951812744141 5.365408897399902 34.93102264404297 C 6.757670402526855 31.63936233520508 8.480962753295898 28.46445465087891 10.48739337921143 25.49453163146973 C 12.47494697570801 22.55256271362305 14.75754737854004 19.78603935241699 17.27179336547852 17.27179336547852 C 19.78603935241699 14.75754737854004 22.55256271362305 12.47494697570801 25.49453163146973 10.48739337921143 C 28.46445465087891 8.480962753295898 31.63936233520508 6.757670402526855 34.93102264404297 5.365408897399902 C 41.77951812744141 2.468747138977051 49.05500793457031 1.000008702278137 56.55537796020508 1.000008702278137 C 64.05574798583984 1.000008702278137 71.33123779296875 2.468747138977051 78.17973327636719 5.365408897399902 C 81.47140502929688 6.757670402526855 84.64630126953125 8.480962753295898 87.61622619628906 10.48739337921143 C 90.55819702148438 12.47494697570801 93.32471466064453 14.75754737854004 95.83896636962891 17.27179336547852 C 98.35321044921875 19.78603935241699 100.6358108520508 22.55256271362305 102.6233596801758 25.49453163146973 C 104.6298065185547 28.46445465087891 106.3531036376953 31.63936233520508 107.745361328125 34.93102264404297 C 110.6420211791992 41.77953338623047 112.1107635498047 49.05500793457031 112.1107635498047 56.55537796020508 C 112.1107635498047 64.05574798583984 110.6420211791992 71.33123779296875 107.745361328125 78.17973327636719 C 106.3531036376953 81.47140502929688 104.6298065185547 84.64630126953125 102.6233596801758 87.61622619628906 C 100.6358108520508 90.55819702148438 98.35321044921875 93.32471466064453 95.83896636962891 95.83896636962891 C 93.32471466064453 98.35321044921875 90.55819702148438 100.6358108520508 87.61622619628906 102.6233596801758 C 84.64630126953125 104.6298065185547 81.47140502929688 106.3531036376953 78.17973327636719 107.745361328125 C 71.33123779296875 110.6420211791992 64.05574798583984 112.1107635498047 56.55537796020508 112.1107635498047 Z"/><path class="g" d="M 56.55537796020508 1.999992370605469 C 49.18955993652344 1.999992370605469 42.04514312744141 3.442146301269531 35.32057952880859 6.286415100097656 C 32.08837890625 7.653511047363281 28.97076416015625 9.345710754394531 26.05434417724609 11.31600952148438 C 23.16510772705078 13.2679443359375 20.44814300537109 15.50965881347656 17.97889709472656 17.97889709472656 C 15.50965881347656 20.44814300537109 13.2679443359375 23.16510772705078 11.31600952148438 26.05434417724609 C 9.345710754394531 28.97076416015625 7.653511047363281 32.08837890625 6.286415100097656 35.32057952880859 C 3.442146301269531 42.04514312744141 1.999992370605469 49.18955993652344 1.999992370605469 56.55537796020508 C 1.999992370605469 63.92119598388672 3.442146301269531 71.06561279296875 6.286415100097656 77.79017639160156 C 7.653511047363281 81.02237701416016 9.345710754394531 84.13999938964844 11.31600952148438 87.05641174316406 C 13.2679443359375 89.94564819335938 15.50965881347656 92.66261291503906 17.97889709472656 95.13185882568359 C 20.44814300537109 97.60109710693359 23.16510772705078 99.84281158447266 26.05434417724609 101.7947463989258 C 28.97076416015625 103.7650451660156 32.08837890625 105.4572448730469 35.32057952880859 106.8243408203125 C 42.04514312744141 109.6686096191406 49.18955993652344 111.1107635498047 56.55537796020508 111.1107635498047 C 63.92119598388672 111.1107635498047 71.06561279296875 109.6686096191406 77.79017639160156 106.8243408203125 C 81.02237701416016 105.4572448730469 84.13999938964844 103.7650451660156 87.05641174316406 101.7947463989258 C 89.94564819335938 99.84281158447266 92.66261291503906 97.60109710693359 95.13185882568359 95.13185882568359 C 97.60109710693359 92.66261291503906 99.84281158447266 89.94564819335938 101.7947463989258 87.05641174316406 C 103.7650451660156 84.13999938964844 105.4572448730469 81.02237701416016 106.8243408203125 77.79017639160156 C 109.6686096191406 71.06561279296875 111.1107635498047 63.92119598388672 111.1107635498047 56.55537796020508 C 111.1107635498047 49.18955993652344 109.6686096191406 42.04514312744141 106.8243408203125 35.32057952880859 C 105.4572448730469 32.08837890625 103.7650451660156 28.97076416015625 101.7947463989258 26.05434417724609 C 99.84281158447266 23.16510772705078 97.60109710693359 20.44814300537109 95.13185882568359 17.97889709472656 C 92.66261291503906 15.50965881347656 89.94564819335938 13.2679443359375 87.05641174316406 11.31600952148438 C 84.13999938964844 9.345710754394531 81.02237701416016 7.653511047363281 77.79017639160156 6.286415100097656 C 71.06561279296875 3.442146301269531 63.92119598388672 1.999992370605469 56.55537796020508 1.999992370605469 M 56.55537796020508 -7.62939453125e-06 C 87.79004669189453 -7.62939453125e-06 113.1107635498047 25.32070922851562 113.1107635498047 56.55537796020508 C 113.1107635498047 87.79004669189453 87.79004669189453 113.1107635498047 56.55537796020508 113.1107635498047 C 25.32070922851562 113.1107635498047 -7.62939453125e-06 87.79004669189453 -7.62939453125e-06 56.55537796020508 C -7.62939453125e-06 25.32070922851562 25.32070922851562 -7.62939453125e-06 56.55537796020508 -7.62939453125e-06 Z"/></g></g><text class="b" transform="translate(0 51.048)"><tspan x="24.342" y="19">상호 운용성</tspan></text><g class="c" transform="translate(0.001)"><path class="f" d="M62.958,0A62.958,62.958,0,1,1,0,62.958,62.958,62.958,0,0,1,62.958,0Z"/><path class="h" d="M 62.9578742980957 0.9999923706054688 C 54.59317779541016 0.9999923706054688 46.47920989990234 2.638008117675781 38.84137725830078 5.868537902832031 C 35.17034149169922 7.421257019042969 31.62953948974609 9.343154907226562 28.31734466552734 11.58084106445312 C 25.03633880615234 13.79742431640625 21.95100402832031 16.34307098388672 19.14704132080078 19.14704132080078 C 16.34307098388672 21.95100402832031 13.79742431640625 25.03633880615234 11.58084106445312 28.31734466552734 C 9.343154907226562 31.62953948974609 7.421257019042969 35.17034149169922 5.868537902832031 38.84137725830078 C 2.638008117675781 46.47920989990234 0.9999923706054688 54.59317779541016 0.9999923706054688 62.9578742980957 C 0.9999923706054688 71.32257080078125 2.638008117675781 79.43653869628906 5.868537902832031 87.07437133789062 C 7.421257019042969 90.74540710449219 9.343154907226562 94.28620910644531 11.58084106445312 97.59840393066406 C 13.79742431640625 100.8794097900391 16.34307098388672 103.9647369384766 19.14704132080078 106.7687072753906 C 21.95100402832031 109.5726776123047 25.03633880615234 112.1183090209961 28.31734466552734 114.3349075317383 C 31.62953948974609 116.5725936889648 35.17034149169922 118.4944763183594 38.84137725830078 120.0471878051758 C 46.47920989990234 123.2777252197266 54.59317779541016 124.9157409667969 62.9578742980957 124.9157409667969 C 71.32257080078125 124.9157409667969 79.43653869628906 123.2777252197266 87.07437133789062 120.0471878051758 C 90.74540710449219 118.4944763183594 94.28620910644531 116.5725936889648 97.59840393066406 114.3349075317383 C 100.8794097900391 112.1183090209961 103.9647369384766 109.5726776123047 106.7687072753906 106.7687072753906 C 109.5726776123047 103.9647369384766 112.1183090209961 100.8794097900391 114.3349075317383 97.59840393066406 C 116.5725936889648 94.28620910644531 118.4944763183594 90.74540710449219 120.0471878051758 87.07437133789062 C 123.2777252197266 79.43653869628906 124.9157409667969 71.32257080078125 124.9157409667969 62.9578742980957 C 124.9157409667969 54.59317779541016 123.2777252197266 46.47920989990234 120.0471878051758 38.84137725830078 C 118.4944763183594 35.17034149169922 116.5725936889648 31.62953948974609 114.3349075317383 28.31734466552734 C 112.1183090209961 25.03633880615234 109.5726776123047 21.95100402832031 106.7687072753906 19.14704132080078 C 103.9647369384766 16.34307098388672 100.8794097900391 13.79742431640625 97.59840393066406 11.58084106445312 C 94.28620910644531 9.343154907226562 90.74540710449219 7.421257019042969 87.07437133789062 5.868537902832031 C 79.43653869628906 2.638008117675781 71.32257080078125 0.9999923706054688 62.9578742980957 0.9999923706054688 M 62.9578742980957 -7.62939453125e-06 C 97.72856140136719 -7.62939453125e-06 125.9157409667969 28.18721008300781 125.9157409667969 62.9578742980957 C 125.9157409667969 97.72856140136719 97.72856140136719 125.9157409667969 62.9578742980957 125.9157409667969 C 28.18721008300781 125.9157409667969 -7.62939453125e-06 97.72856140136719 -7.62939453125e-06 62.9578742980957 C -7.62939453125e-06 28.18721008300781 28.18721008300781 -7.62939453125e-06 62.9578742980957 -7.62939453125e-06 Z"/></g></g><g transform="translate(1175.347 1389.786)"><g class="j" transform="matrix(1, 0, 0, 1, -409.05, -68.07)"><g class="a" transform="translate(415.45 74.47)"><path class="f" d="M 56.55537796020508 112.1107635498047 C 49.05500793457031 112.1107635498047 41.77953338623047 110.6420211791992 34.93102264404297 107.745361328125 C 31.63936233520508 106.3531036376953 28.46445465087891 104.6298065185547 25.49453163146973 102.6233596801758 C 22.55256271362305 100.6358108520508 19.78603935241699 98.35321044921875 17.27179336547852 95.83896636962891 C 14.75754737854004 93.32471466064453 12.47494697570801 90.55819702148438 10.48739337921143 87.61622619628906 C 8.480962753295898 84.64630126953125 6.757670402526855 81.47140502929688 5.365408897399902 78.17973327636719 C 2.468747138977051 71.33123779296875 1.000008702278137 64.05574798583984 1.000008702278137 56.55537796020508 C 1.000008702278137 49.05500793457031 2.468747138977051 41.77951812744141 5.365408897399902 34.93102264404297 C 6.757670402526855 31.63936233520508 8.480962753295898 28.46445465087891 10.48739337921143 25.49453163146973 C 12.47494697570801 22.55256271362305 14.75754737854004 19.78603935241699 17.27179336547852 17.27179336547852 C 19.78603935241699 14.75754737854004 22.55256271362305 12.47494697570801 25.49453163146973 10.48739337921143 C 28.46445465087891 8.480962753295898 31.63936233520508 6.757670402526855 34.93102264404297 5.365408897399902 C 41.77951812744141 2.468747138977051 49.05500793457031 1.000008702278137 56.55537796020508 1.000008702278137 C 64.05574798583984 1.000008702278137 71.33123779296875 2.468747138977051 78.17973327636719 5.365408897399902 C 81.47140502929688 6.757670402526855 84.64630126953125 8.480962753295898 87.61622619628906 10.48739337921143 C 90.55819702148438 12.47494697570801 93.32471466064453 14.75754737854004 95.83896636962891 17.27179336547852 C 98.35321044921875 19.78603935241699 100.6358108520508 22.55256271362305 102.6233596801758 25.49453163146973 C 104.6298065185547 28.46445465087891 106.3531036376953 31.63936233520508 107.745361328125 34.93102264404297 C 110.6420211791992 41.77953338623047 112.1107635498047 49.05500793457031 112.1107635498047 56.55537796020508 C 112.1107635498047 64.05574798583984 110.6420211791992 71.33123779296875 107.745361328125 78.17973327636719 C 106.3531036376953 81.47140502929688 104.6298065185547 84.64630126953125 102.6233596801758 87.61622619628906 C 100.6358108520508 90.55819702148438 98.35321044921875 93.32471466064453 95.83896636962891 95.83896636962891 C 93.32471466064453 98.35321044921875 90.55819702148438 100.6358108520508 87.61622619628906 102.6233596801758 C 84.64630126953125 104.6298065185547 81.47140502929688 106.3531036376953 78.17973327636719 107.745361328125 C 71.33123779296875 110.6420211791992 64.05574798583984 112.1107635498047 56.55537796020508 112.1107635498047 Z"/><path class="g" d="M 56.55537796020508 1.999992370605469 C 49.18955993652344 1.999992370605469 42.04514312744141 3.442146301269531 35.32057952880859 6.286415100097656 C 32.08837890625 7.653511047363281 28.97076416015625 9.345710754394531 26.05434417724609 11.31600952148438 C 23.16510772705078 13.2679443359375 20.44814300537109 15.50965881347656 17.97889709472656 17.97889709472656 C 15.50965881347656 20.44814300537109 13.2679443359375 23.16510772705078 11.31600952148438 26.05434417724609 C 9.345710754394531 28.97076416015625 7.653511047363281 32.08837890625 6.286415100097656 35.32057952880859 C 3.442146301269531 42.04514312744141 1.999992370605469 49.18955993652344 1.999992370605469 56.55537796020508 C 1.999992370605469 63.92119598388672 3.442146301269531 71.06561279296875 6.286415100097656 77.79017639160156 C 7.653511047363281 81.02237701416016 9.345710754394531 84.13999938964844 11.31600952148438 87.05641174316406 C 13.2679443359375 89.94564819335938 15.50965881347656 92.66261291503906 17.97889709472656 95.13185882568359 C 20.44814300537109 97.60109710693359 23.16510772705078 99.84281158447266 26.05434417724609 101.7947463989258 C 28.97076416015625 103.7650451660156 32.08837890625 105.4572448730469 35.32057952880859 106.8243408203125 C 42.04514312744141 109.6686096191406 49.18955993652344 111.1107635498047 56.55537796020508 111.1107635498047 C 63.92119598388672 111.1107635498047 71.06561279296875 109.6686096191406 77.79017639160156 106.8243408203125 C 81.02237701416016 105.4572448730469 84.13999938964844 103.7650451660156 87.05641174316406 101.7947463989258 C 89.94564819335938 99.84281158447266 92.66261291503906 97.60109710693359 95.13185882568359 95.13185882568359 C 97.60109710693359 92.66261291503906 99.84281158447266 89.94564819335938 101.7947463989258 87.05641174316406 C 103.7650451660156 84.13999938964844 105.4572448730469 81.02237701416016 106.8243408203125 77.79017639160156 C 109.6686096191406 71.06561279296875 111.1107635498047 63.92119598388672 111.1107635498047 56.55537796020508 C 111.1107635498047 49.18955993652344 109.6686096191406 42.04514312744141 106.8243408203125 35.32057952880859 C 105.4572448730469 32.08837890625 103.7650451660156 28.97076416015625 101.7947463989258 26.05434417724609 C 99.84281158447266 23.16510772705078 97.60109710693359 20.44814300537109 95.13185882568359 17.97889709472656 C 92.66261291503906 15.50965881347656 89.94564819335938 13.2679443359375 87.05641174316406 11.31600952148438 C 84.13999938964844 9.345710754394531 81.02237701416016 7.653511047363281 77.79017639160156 6.286415100097656 C 71.06561279296875 3.442146301269531 63.92119598388672 1.999992370605469 56.55537796020508 1.999992370605469 M 56.55537796020508 -7.62939453125e-06 C 87.79004669189453 -7.62939453125e-06 113.1107635498047 25.32070922851562 113.1107635498047 56.55537796020508 C 113.1107635498047 87.79004669189453 87.79004669189453 113.1107635498047 56.55537796020508 113.1107635498047 C 25.32070922851562 113.1107635498047 -7.62939453125e-06 87.79004669189453 -7.62939453125e-06 56.55537796020508 C -7.62939453125e-06 25.32070922851562 25.32070922851562 -7.62939453125e-06 56.55537796020508 -7.62939453125e-06 Z"/></g></g><text class="b" transform="translate(63.084 68.958)"><tspan x="-29.44" y="0">플러그인</tspan></text><g class="c"><path class="f" d="M62.958,0A62.958,62.958,0,1,1,0,62.958,62.958,62.958,0,0,1,62.958,0Z"/><path class="h" d="M 62.9578742980957 0.9999923706054688 C 54.59317779541016 0.9999923706054688 46.47920989990234 2.638008117675781 38.84137725830078 5.868537902832031 C 35.17034149169922 7.421257019042969 31.62953948974609 9.343154907226562 28.31734466552734 11.58084106445312 C 25.03633880615234 13.79742431640625 21.95100402832031 16.34307098388672 19.14704132080078 19.14704132080078 C 16.34307098388672 21.95100402832031 13.79742431640625 25.03633880615234 11.58084106445312 28.31734466552734 C 9.343154907226562 31.62953948974609 7.421257019042969 35.17034149169922 5.868537902832031 38.84137725830078 C 2.638008117675781 46.47920989990234 0.9999923706054688 54.59317779541016 0.9999923706054688 62.9578742980957 C 0.9999923706054688 71.32257080078125 2.638008117675781 79.43653869628906 5.868537902832031 87.07437133789062 C 7.421257019042969 90.74540710449219 9.343154907226562 94.28620910644531 11.58084106445312 97.59840393066406 C 13.79742431640625 100.8794097900391 16.34307098388672 103.9647369384766 19.14704132080078 106.7687072753906 C 21.95100402832031 109.5726776123047 25.03633880615234 112.1183090209961 28.31734466552734 114.3349075317383 C 31.62953948974609 116.5725936889648 35.17034149169922 118.4944763183594 38.84137725830078 120.0471878051758 C 46.47920989990234 123.2777252197266 54.59317779541016 124.9157409667969 62.9578742980957 124.9157409667969 C 71.32257080078125 124.9157409667969 79.43653869628906 123.2777252197266 87.07437133789062 120.0471878051758 C 90.74540710449219 118.4944763183594 94.28620910644531 116.5725936889648 97.59840393066406 114.3349075317383 C 100.8794097900391 112.1183090209961 103.9647369384766 109.5726776123047 106.7687072753906 106.7687072753906 C 109.5726776123047 103.9647369384766 112.1183090209961 100.8794097900391 114.3349075317383 97.59840393066406 C 116.5725936889648 94.28620910644531 118.4944763183594 90.74540710449219 120.0471878051758 87.07437133789062 C 123.2777252197266 79.43653869628906 124.9157409667969 71.32257080078125 124.9157409667969 62.9578742980957 C 124.9157409667969 54.59317779541016 123.2777252197266 46.47920989990234 120.0471878051758 38.84137725830078 C 118.4944763183594 35.17034149169922 116.5725936889648 31.62953948974609 114.3349075317383 28.31734466552734 C 112.1183090209961 25.03633880615234 109.5726776123047 21.95100402832031 106.7687072753906 19.14704132080078 C 103.9647369384766 16.34307098388672 100.8794097900391 13.79742431640625 97.59840393066406 11.58084106445312 C 94.28620910644531 9.343154907226562 90.74540710449219 7.421257019042969 87.07437133789062 5.868537902832031 C 79.43653869628906 2.638008117675781 71.32257080078125 0.9999923706054688 62.9578742980957 0.9999923706054688 M 62.9578742980957 -7.62939453125e-06 C 97.72856140136719 -7.62939453125e-06 125.9157409667969 28.18721008300781 125.9157409667969 62.9578742980957 C 125.9157409667969 97.72856140136719 97.72856140136719 125.9157409667969 62.9578742980957 125.9157409667969 C 28.18721008300781 125.9157409667969 -7.62939453125e-06 97.72856140136719 -7.62939453125e-06 62.9578742980957 C -7.62939453125e-06 28.18721008300781 28.18721008300781 -7.62939453125e-06 62.9578742980957 -7.62939453125e-06 Z"/></g></g><g transform="translate(1310.154 1321.875)"><g class="i" transform="matrix(1, 0, 0, 1, -543.86, -0.16)"><g class="a" transform="translate(550.26 6.56)"><path class="f" d="M 56.55537796020508 112.1107635498047 C 49.05500793457031 112.1107635498047 41.77953338623047 110.6420211791992 34.93102264404297 107.745361328125 C 31.63936233520508 106.3531036376953 28.46445465087891 104.6298065185547 25.49453163146973 102.6233596801758 C 22.55256271362305 100.6358108520508 19.78603935241699 98.35321044921875 17.27179336547852 95.83896636962891 C 14.75754737854004 93.32471466064453 12.47494697570801 90.55819702148438 10.48739337921143 87.61622619628906 C 8.480962753295898 84.64630126953125 6.757670402526855 81.47140502929688 5.365408897399902 78.17973327636719 C 2.468747138977051 71.33123779296875 1.000008702278137 64.05574798583984 1.000008702278137 56.55537796020508 C 1.000008702278137 49.05500793457031 2.468747138977051 41.77951812744141 5.365408897399902 34.93102264404297 C 6.757670402526855 31.63936233520508 8.480962753295898 28.46445465087891 10.48739337921143 25.49453163146973 C 12.47494697570801 22.55256271362305 14.75754737854004 19.78603935241699 17.27179336547852 17.27179336547852 C 19.78603935241699 14.75754737854004 22.55256271362305 12.47494697570801 25.49453163146973 10.48739337921143 C 28.46445465087891 8.480962753295898 31.63936233520508 6.757670402526855 34.93102264404297 5.365408897399902 C 41.77951812744141 2.468747138977051 49.05500793457031 1.000008702278137 56.55537796020508 1.000008702278137 C 64.05574798583984 1.000008702278137 71.33123779296875 2.468747138977051 78.17973327636719 5.365408897399902 C 81.47140502929688 6.757670402526855 84.64630126953125 8.480962753295898 87.61622619628906 10.48739337921143 C 90.55819702148438 12.47494697570801 93.32471466064453 14.75754737854004 95.83896636962891 17.27179336547852 C 98.35321044921875 19.78603935241699 100.6358108520508 22.55256271362305 102.6233596801758 25.49453163146973 C 104.6298065185547 28.46445465087891 106.3531036376953 31.63936233520508 107.745361328125 34.93102264404297 C 110.6420211791992 41.77953338623047 112.1107635498047 49.05500793457031 112.1107635498047 56.55537796020508 C 112.1107635498047 64.05574798583984 110.6420211791992 71.33123779296875 107.745361328125 78.17973327636719 C 106.3531036376953 81.47140502929688 104.6298065185547 84.64630126953125 102.6233596801758 87.61622619628906 C 100.6358108520508 90.55819702148438 98.35321044921875 93.32471466064453 95.83896636962891 95.83896636962891 C 93.32471466064453 98.35321044921875 90.55819702148438 100.6358108520508 87.61622619628906 102.6233596801758 C 84.64630126953125 104.6298065185547 81.47140502929688 106.3531036376953 78.17973327636719 107.745361328125 C 71.33123779296875 110.6420211791992 64.05574798583984 112.1107635498047 56.55537796020508 112.1107635498047 Z"/><path class="g" d="M 56.55537796020508 1.999992370605469 C 49.18955993652344 1.999992370605469 42.04514312744141 3.442146301269531 35.32057952880859 6.286415100097656 C 32.08837890625 7.653511047363281 28.97076416015625 9.345710754394531 26.05434417724609 11.31600952148438 C 23.16510772705078 13.2679443359375 20.44814300537109 15.50965881347656 17.97889709472656 17.97889709472656 C 15.50965881347656 20.44814300537109 13.2679443359375 23.16510772705078 11.31600952148438 26.05434417724609 C 9.345710754394531 28.97076416015625 7.653511047363281 32.08837890625 6.286415100097656 35.32057952880859 C 3.442146301269531 42.04514312744141 1.999992370605469 49.18955993652344 1.999992370605469 56.55537796020508 C 1.999992370605469 63.92119598388672 3.442146301269531 71.06561279296875 6.286415100097656 77.79017639160156 C 7.653511047363281 81.02237701416016 9.345710754394531 84.13999938964844 11.31600952148438 87.05641174316406 C 13.2679443359375 89.94564819335938 15.50965881347656 92.66261291503906 17.97889709472656 95.13185882568359 C 20.44814300537109 97.60109710693359 23.16510772705078 99.84281158447266 26.05434417724609 101.7947463989258 C 28.97076416015625 103.7650451660156 32.08837890625 105.4572448730469 35.32057952880859 106.8243408203125 C 42.04514312744141 109.6686096191406 49.18955993652344 111.1107635498047 56.55537796020508 111.1107635498047 C 63.92119598388672 111.1107635498047 71.06561279296875 109.6686096191406 77.79017639160156 106.8243408203125 C 81.02237701416016 105.4572448730469 84.13999938964844 103.7650451660156 87.05641174316406 101.7947463989258 C 89.94564819335938 99.84281158447266 92.66261291503906 97.60109710693359 95.13185882568359 95.13185882568359 C 97.60109710693359 92.66261291503906 99.84281158447266 89.94564819335938 101.7947463989258 87.05641174316406 C 103.7650451660156 84.13999938964844 105.4572448730469 81.02237701416016 106.8243408203125 77.79017639160156 C 109.6686096191406 71.06561279296875 111.1107635498047 63.92119598388672 111.1107635498047 56.55537796020508 C 111.1107635498047 49.18955993652344 109.6686096191406 42.04514312744141 106.8243408203125 35.32057952880859 C 105.4572448730469 32.08837890625 103.7650451660156 28.97076416015625 101.7947463989258 26.05434417724609 C 99.84281158447266 23.16510772705078 97.60109710693359 20.44814300537109 95.13185882568359 17.97889709472656 C 92.66261291503906 15.50965881347656 89.94564819335938 13.2679443359375 87.05641174316406 11.31600952148438 C 84.13999938964844 9.345710754394531 81.02237701416016 7.653511047363281 77.79017639160156 6.286415100097656 C 71.06561279296875 3.442146301269531 63.92119598388672 1.999992370605469 56.55537796020508 1.999992370605469 M 56.55537796020508 -7.62939453125e-06 C 87.79004669189453 -7.62939453125e-06 113.1107635498047 25.32070922851562 113.1107635498047 56.55537796020508 C 113.1107635498047 87.79004669189453 87.79004669189453 113.1107635498047 56.55537796020508 113.1107635498047 C 25.32070922851562 113.1107635498047 -7.62939453125e-06 87.79004669189453 -7.62939453125e-06 56.55537796020508 C -7.62939453125e-06 25.32070922851562 25.32070922851562 -7.62939453125e-06 56.55537796020508 -7.62939453125e-06 Z"/></g></g><text class="b" transform="translate(0 49.378)"><tspan x="40.878" y="19">이식성</tspan></text><g class="c"><path class="f" d="M62.958,0A62.958,62.958,0,1,1,0,62.958,62.958,62.958,0,0,1,62.958,0Z"/><path class="h" d="M 62.9578742980957 0.9999923706054688 C 54.59317779541016 0.9999923706054688 46.47920989990234 2.638008117675781 38.84137725830078 5.868537902832031 C 35.17034149169922 7.421257019042969 31.62953948974609 9.343154907226562 28.31734466552734 11.58084106445312 C 25.03633880615234 13.79742431640625 21.95100402832031 16.34307098388672 19.14704132080078 19.14704132080078 C 16.34307098388672 21.95100402832031 13.79742431640625 25.03633880615234 11.58084106445312 28.31734466552734 C 9.343154907226562 31.62953948974609 7.421257019042969 35.17034149169922 5.868537902832031 38.84137725830078 C 2.638008117675781 46.47920989990234 0.9999923706054688 54.59317779541016 0.9999923706054688 62.9578742980957 C 0.9999923706054688 71.32257080078125 2.638008117675781 79.43653869628906 5.868537902832031 87.07437133789062 C 7.421257019042969 90.74540710449219 9.343154907226562 94.28620910644531 11.58084106445312 97.59840393066406 C 13.79742431640625 100.8794097900391 16.34307098388672 103.9647369384766 19.14704132080078 106.7687072753906 C 21.95100402832031 109.5726776123047 25.03633880615234 112.1183090209961 28.31734466552734 114.3349075317383 C 31.62953948974609 116.5725936889648 35.17034149169922 118.4944763183594 38.84137725830078 120.0471878051758 C 46.47920989990234 123.2777252197266 54.59317779541016 124.9157409667969 62.9578742980957 124.9157409667969 C 71.32257080078125 124.9157409667969 79.43653869628906 123.2777252197266 87.07437133789062 120.0471878051758 C 90.74540710449219 118.4944763183594 94.28620910644531 116.5725936889648 97.59840393066406 114.3349075317383 C 100.8794097900391 112.1183090209961 103.9647369384766 109.5726776123047 106.7687072753906 106.7687072753906 C 109.5726776123047 103.9647369384766 112.1183090209961 100.8794097900391 114.3349075317383 97.59840393066406 C 116.5725936889648 94.28620910644531 118.4944763183594 90.74540710449219 120.0471878051758 87.07437133789062 C 123.2777252197266 79.43653869628906 124.9157409667969 71.32257080078125 124.9157409667969 62.9578742980957 C 124.9157409667969 54.59317779541016 123.2777252197266 46.47920989990234 120.0471878051758 38.84137725830078 C 118.4944763183594 35.17034149169922 116.5725936889648 31.62953948974609 114.3349075317383 28.31734466552734 C 112.1183090209961 25.03633880615234 109.5726776123047 21.95100402832031 106.7687072753906 19.14704132080078 C 103.9647369384766 16.34307098388672 100.8794097900391 13.79742431640625 97.59840393066406 11.58084106445312 C 94.28620910644531 9.343154907226562 90.74540710449219 7.421257019042969 87.07437133789062 5.868537902832031 C 79.43653869628906 2.638008117675781 71.32257080078125 0.9999923706054688 62.9578742980957 0.9999923706054688 M 62.9578742980957 -7.62939453125e-06 C 97.72856140136719 -7.62939453125e-06 125.9157409667969 28.18721008300781 125.9157409667969 62.9578742980957 C 125.9157409667969 97.72856140136719 97.72856140136719 125.9157409667969 62.9578742980957 125.9157409667969 C 28.18721008300781 125.9157409667969 -7.62939453125e-06 97.72856140136719 -7.62939453125e-06 62.9578742980957 C -7.62939453125e-06 28.18721008300781 28.18721008300781 -7.62939453125e-06 62.9578742980957 -7.62939453125e-06 Z"/></g></g><path class="e" d="M24.3,14.307-.246.435.246-.435,24.789,13.437Z" transform="translate(884.807 1417.58)"/><path class="e" d="M24.3,14.307-.246.435.246-.435,24.789,13.437Z" transform="translate(1161.182 1406.909)"/><path class="e" d="M24.3,14.307-.246.435.246-.435,24.789,13.437Z" transform="translate(1433.287 1404.775)"/><path class="e" d="M.268,15.361l-.537-.844L23.207-.422l.537.844Z" transform="translate(1020.326 1405.842)"/><path class="e" d="M.268,15.361l-.537-.844L23.207-.422l.537.844Z" transform="translate(1293.5 1409.577)"/></g></svg>