<svg xmlns="http://www.w3.org/2000/svg" width="589" height="262" viewBox="0 0 589 262"><defs><style>.a{fill:#b7b7b7;}.b{fill:#6e6e6e;}.c{fill:#e8e8e8;}.d{fill:#f8f8f8;}.e{fill:#fff;}.e,.f,.g{font-size:12px;}.e,.f,.g,.h{font-family:NotoSansKR-Medium, Noto Sans KR;font-weight:500;}.g,.h{fill:#707070;}.h{font-size:10px;}</style></defs><g transform="translate(-220 -2425.373)"><g transform="translate(220 2425)"><rect class="a" width="330" height="48" rx="3" transform="translate(1 160.373)"/><rect class="b" width="589" height="48" rx="3" transform="translate(0 214.373)"/><rect class="c" width="161" height="46" rx="3" transform="translate(1 109.373)"/><rect class="d" width="79" height="49" rx="3" transform="translate(1 54.373)"/><rect class="d" width="79" height="48" rx="3" transform="translate(1 0.373)"/><rect class="d" width="76" height="48" rx="3" transform="translate(86 0.373)"/><rect class="d" width="79" height="48" rx="3" transform="translate(168 0.373)"/><rect class="d" width="79" height="48" rx="3" transform="translate(252 0.373)"/><rect class="d" width="76" height="49" rx="3" transform="translate(86 54.373)"/><rect class="d" width="79" height="49" rx="3" transform="translate(168 54.373)"/><rect class="d" width="79" height="49" rx="3" transform="translate(252 54.373)"/><rect class="c" width="163" height="46" rx="3" transform="translate(168 109.373)"/><rect class="c" width="123" height="46" rx="3" transform="translate(337 109.373)"/><rect class="c" width="122" height="46" rx="3" transform="translate(465 109.373)"/><rect class="a" width="252" height="48" rx="3" transform="translate(337 160.373)"/><text class="e" transform="translate(0 228.373)"><tspan x="-112.536" y="14">Flexwill OSF (Open Service Framework)</tspan></text><text class="f" transform="translate(1 176.373)"><tspan x="-105.288" y="14">Cloud Native Application Framework</tspan></text><text class="g" transform="translate(1 124.373)"><tspan x="-41.34" y="14">디지털 거점 개발</tspan></text><text class="h" transform="translate(1 70.373)"><tspan x="19.975" y="12">스마트 팜</tspan></text><text class="h" transform="translate(1 17.373)"><tspan x="15.375" y="12">아쿠아 트윈</tspan></text><text class="h" transform="translate(86 17.373)"><tspan x="30.135" y="12">IOT</tspan></text><text class="h" transform="translate(168 17.373)"><tspan x="20.815" y="12">QA Tool</tspan></text><text class="h" transform="translate(252 9.373)"><tspan x="-24.125" y="12">머신 리더블</tspan><tspan x="-23" y="25">레귤레이션</tspan></text><text class="h" transform="translate(86 64.373)"><tspan x="-27.6" y="12">스마트팩토리</tspan><tspan x="-27.675" y="25">(데이터 거래)</tspan></text><text class="h" transform="translate(168 64.373)"><tspan x="-18.4" y="12">커뮤니티</tspan><tspan x="-18.4" y="25">모니터링</tspan></text><text class="h" transform="translate(252 70.373)"><tspan x="-24.125" y="12">다국어 지원</tspan></text><text class="g" transform="translate(168 123.373)"><tspan x="-29.088" y="14">Game 운영</tspan></text><text class="g" transform="translate(337 123.373)"><tspan x="-47.796" y="14">AR/VR 컨텐츠 제작</tspan></text><text class="g" transform="translate(465 123.373)"><tspan x="-45.708" y="14">NFT Framework</tspan></text><text class="f" transform="translate(337 176.373)"><tspan x="-55.68" y="14">XR Cloud Authoring</tspan></text></g></g></svg>