<svg xmlns="http://www.w3.org/2000/svg" width="62" height="62" viewBox="0 0 62 62">
  <g id="icon-ai" transform="translate(20401 -13458)">
    <path id="패스_6495" data-name="패스 6495" d="M13.384,13.384H48.616V48.616H13.384ZM42.687,0V9.341h-5.1V0H33.548V9.341h-5.1V0H24.409V9.341h-5.1V0H15.269V9.341H9.341v5.928H0v4.043H9.341v5.1H0v4.043H9.341v5.1H0v4.043H9.341v5.1H0v4.043H9.341v5.928h5.928V62h4.043V52.659h5.1V62h4.043V52.659h5.1V62h4.043V52.659h5.1V62h4.043V52.659h5.928V46.731H62V42.687H52.659v-5.1H62V33.548H52.659v-5.1H62V24.409H52.659v-5.1H62V15.269H52.659V9.341H46.731V0Z" transform="translate(-20401 13458)" fill="#fff" opacity="0.89"/>
    <path id="패스_6496" data-name="패스 6496" d="M194.644,178.876a4.561,4.561,0,0,0-2.822-4.2,4.184,4.184,0,0,0-7-2.878,4.183,4.183,0,0,0-7,2.878,4.561,4.561,0,0,0-2.822,4.2,4.513,4.513,0,0,0,.553,2.169,4.539,4.539,0,0,0,2.27,6.372,4.183,4.183,0,0,0,7,2.876,4.183,4.183,0,0,0,7-2.876,4.539,4.539,0,0,0,2.27-6.372,4.514,4.514,0,0,0,.553-2.169M183.456,187.2a1.448,1.448,0,0,1-2.833.424,4.55,4.55,0,0,0,2.289-1.361l-2.029-1.838a1.783,1.783,0,0,1-1.337.593,1.8,1.8,0,0,1-1.8-1.8q0-.086.008-.17a4.513,4.513,0,0,0,1.795.371v-2.737a1.8,1.8,0,0,1-.931-3.346,4.18,4.18,0,0,0,1.923,1.477l.961-2.563a1.448,1.448,0,1,1,1.957-1.357Zm8.443-4.155q.008.085.008.17a1.8,1.8,0,0,1-1.8,1.8,1.783,1.783,0,0,1-1.337-.593l-2.029,1.838a4.55,4.55,0,0,0,2.289,1.361,1.448,1.448,0,0,1-2.833-.424v-12.31a1.448,1.448,0,1,1,1.957,1.357l.961,2.563a4.18,4.18,0,0,0,1.923-1.477,1.8,1.8,0,0,1-.931,3.346v2.737a4.513,4.513,0,0,0,1.795-.371" transform="translate(-20554.824 13307.954)" fill="#4285f4"/>
    <rect id="사각형_2737" data-name="사각형 2737" width="61.751" height="61.751" transform="translate(-20400.875 13458.124)" fill="none"/>
  </g>
</svg>
