<svg xmlns="http://www.w3.org/2000/svg" width="73" height="73" viewBox="0 0 73 73">
  <g id="icon-solution-03" transform="translate(0 -1)">
    <g id="레이어_2" data-name="레이어 2" transform="translate(0.232 0.862)">
      <g id="레이어_1" data-name="레이어 1">
        <path id="패스_6615" data-name="패스 6615" d="M58.855,34.386l.091.073a.811.811,0,0,0-.134-.469c-.079-.122-.165-.238-.244-.347a.652.652,0,0,0-.981-.116.823.823,0,0,0-.122.165,2.2,2.2,0,0,1,.731.244,4.175,4.175,0,0,1,.664.451m-2,23.41c.122-.1.238-.2.354-.3a.744.744,0,0,0,.037-1.1.865.865,0,0,0-.89-.2v1.792a.8.8,0,0,0,.5-.189m-6.7-28.28.366.122a.756.756,0,0,0,.945-.4.658.658,0,0,0-.433-.865l-.384-.116a.75.75,0,0,0-.933.414.658.658,0,0,0,.457.853M60.7,51.421a.872.872,0,0,0-1.1.347c-.061.122-.128.238-.2.354a.707.707,0,0,0,.366.987.872.872,0,0,0,1.109-.329c.073-.122.146-.25.213-.378a.707.707,0,0,0-.39-.981M47.336,28.511l.384.055a.707.707,0,1,0,.238-1.39l-.414-.061a.725.725,0,0,0-.823.609.707.707,0,0,0,.609.8M44.5,28.59h.384a.731.731,0,0,0,.713-.744.719.719,0,0,0-.737-.713h-.421A.731.731,0,0,0,44.5,28.59M57.9,54.261c-.079.11-.165.213-.25.323a.725.725,0,0,0,.146,1.054.829.829,0,0,0,1.115-.14l.274-.347a.725.725,0,0,0-.177-1.054.823.823,0,0,0-1.109.165M52.65,30.815l.341.219a.719.719,0,0,0,1.03-.274.841.841,0,0,0-.256-1.1l-.372-.238a.725.725,0,0,0-1.024.3.841.841,0,0,0,.28,1.1M38.48,29.98l.36-.177a.865.865,0,0,0,.4-1.079.713.713,0,0,0-.963-.463l-.4.189a.872.872,0,0,0-.378,1.091.713.713,0,0,0,.975.427m17.334,2.81a.762.762,0,0,0,1.085-.061.786.786,0,0,0-.061-1.1l-.335-.293a.756.756,0,0,0-1.079.085.786.786,0,0,0,.085,1.1l.3.268M40.93,28.925l.384-.079a.689.689,0,0,0,.561-.817.725.725,0,0,0-.859-.542l-.414.091a.689.689,0,0,0-.542.829.725.725,0,0,0,.872.518M32.842,56.785a.969.969,0,0,0,.055,1.164c.091.11.189.213.286.317a.61.61,0,0,0,.134.085V56.523a.609.609,0,0,0-.475.268M31.081,54.1a.731.731,0,0,0-.146,1.06l.28.341a.823.823,0,0,0,1.115.116.731.731,0,0,0,.116-1.06l-.256-.317a.817.817,0,0,0-1.109-.14m-4.352-6.479a11.58,11.58,0,0,0-.53-2.139,4.492,4.492,0,0,0-1.152-1.828l-.14-.122H24.87a7.174,7.174,0,0,1-.92-11.086,7.649,7.649,0,0,1,10.623,0,7.168,7.168,0,0,1,2.2,5.168A7.247,7.247,0,0,1,33.4,43.705H33.36a3.047,3.047,0,0,0-.725,1.091c-.165.39-.293.8-.488,1.292a.439.439,0,0,0,0,.372l-.884.183-4.535.908Zm6.016-.207a.494.494,0,0,0,.39-.609.439.439,0,0,0-.122-.219.3.3,0,0,0,.067-.1c.213-.518.347-.945.488-1.274a2.151,2.151,0,0,1,.481-.744,8.228,8.228,0,0,0,3.767-6.875,8.536,8.536,0,0,0-17.066,0,8.222,8.222,0,0,0,3.657,6.8h0a3.657,3.657,0,0,1,.829,1.39,11.787,11.787,0,0,1,.555,2.438l.067.53,5.6-1.128Zm-6.217,2.474,6.095-1.219a.482.482,0,0,0-.189-.945l-6.095,1.219a.482.482,0,0,0,.189.945" transform="translate(-8.103 -10.586)" fill="#cccedd" fill-rule="evenodd"/>
        <path id="패스_6616" data-name="패스 6616" d="M32.93,65.746a1.828,1.828,0,0,0,1.219.457h.043A1.871,1.871,0,0,0,35.9,65.1Z" transform="translate(-12.86 -25.423)" fill="#fff" fill-rule="evenodd"/>
        <path id="패스_6617" data-name="패스 6617" d="M32.491,65.629h-.067a1.828,1.828,0,0,1-1.176-.445l2.913-.609a1.828,1.828,0,0,1-1.67,1.067m2.761-1.3.3-.061a.481.481,0,0,0,.378-.579.494.494,0,0,0-.609-.378l-5.686,1.219a.49.49,0,0,0,.207.957l.256-.055a2.834,2.834,0,0,0,2.3,1.182h.067a2.81,2.81,0,0,0,2.785-2.286" transform="translate(-11.421 -24.721)" fill="#cccedd" fill-rule="evenodd"/>
        <g id="그룹_7782" data-name="그룹 7782" transform="translate(20.351 15.076)">
          <path id="패스_6618" data-name="패스 6618" d="M34.036,27.25a.609.609,0,0,0,.652-.524V25.244a.669.669,0,0,0-1.3,0v1.481a.609.609,0,0,0,.646.512" transform="translate(-33.39 -24.736)" fill="#cccedd" fill-rule="evenodd"/>
        </g>
        <path id="패스_6619" data-name="패스 6619" d="M21.957,31.556a.549.549,0,0,0,.768,0,.536.536,0,0,0,0-.762l-1.134-1.128a.542.542,0,0,0-.774.744l1.14,1.128ZM36.42,44.739a.542.542,0,0,0-.768,0,.536.536,0,0,0,0,.762l1.134,1.128a.555.555,0,0,0,.768,0,.542.542,0,0,0,0-.768ZM35.311,31.556l1.134-1.146a.536.536,0,0,0,0-.762.542.542,0,0,0-.768,0l-1.14,1.128a.536.536,0,0,0,0,.762.555.555,0,0,0,.774,0m-14.469,13.2L19.708,45.86a.542.542,0,0,0,0,.768.555.555,0,0,0,.768,0l1.14-1.128a.536.536,0,0,0,0-.762.549.549,0,0,0-.774,0" transform="translate(-7.634 -11.516)" fill="#cccedd" fill-rule="evenodd"/>
        <g id="그룹_7783" data-name="그룹 7783" transform="translate(9.221 25.397)">
          <path id="패스_6620" data-name="패스 6620" d="M17.245,41.67H15.739a.609.609,0,1,0,0,1.219h1.505a.609.609,0,1,0,0-1.219" transform="translate(-15.13 -41.67)" fill="#cccedd" fill-rule="evenodd"/>
        </g>
        <path id="패스_6621" data-name="패스 6621" d="M49.36,42.739a.536.536,0,0,0,.524.549h1.542a.549.549,0,0,0,0-1.1H49.884a.536.536,0,0,0-.524.549" transform="translate(-19.276 -16.476)" fill="#cccedd" fill-rule="evenodd"/>
        <path id="패스_6622" data-name="패스 6622" d="M44.336,62.367a.384.384,0,0,1,.39-.378h8.045l.89-1.109H43.3V73.752l1.036-1.335a.366.366,0,0,1-.03-.146Z" transform="translate(-16.909 -23.775)" fill="#fff" fill-rule="evenodd"/>
        <path id="패스_6623" data-name="패스 6623" d="M53.384,77.72l-.445.11.445-.11-.207-.878a.975.975,0,0,0-.347-.524.951.951,0,0,0-.609-.213H49.5a.933.933,0,0,0-.609.213.914.914,0,0,0-.347.524l-.213.878h0v.2a.762.762,0,0,0,.232.542.542.542,0,0,0,.2.128H39.012a.463.463,0,0,0-.457.463.457.457,0,0,0,.457.457H64.355v.609l-26.147-.073v-.853h0a1.134,1.134,0,0,1,.11-.433l2.176-3.815.055-.067h21.5l2.078,3.657H52.982a.7.7,0,0,0,.2-.128.756.756,0,0,0,.226-.481v-.2Zm-3.925-.658h2.779l.171.689H49.294ZM41.024,60.07h10.4a.5.5,0,1,0,0-1H40.9a.884.884,0,0,0-.878.878V73.655a.524.524,0,0,0,.128.329l-.116.049a1.109,1.109,0,0,0-.414.408l-2.182,3.821a2.109,2.109,0,0,0-.244.914h0v1h0a.859.859,0,0,0,.859.859l26.415.079h0a.872.872,0,0,0,.847-.841V79.2h0V79.14a2,2,0,0,0-.2-.872l-.439.244.439-.244-2.151-3.821h0a1.17,1.17,0,0,0-.421-.408h-.061a.494.494,0,0,0,.146-.354V63.861a.5.5,0,0,0-1,0v9.794a.451.451,0,0,0,.055.219H40.957a.457.457,0,0,0,.061-.219V60.07Z" transform="translate(-14.523 -23.068)" fill="#cccedd" fill-rule="evenodd"/>
        <path id="패스_6624" data-name="패스 6624" d="M55.889,63.866V62.69H46.07a.372.372,0,0,0-.366.372v9.916a.3.3,0,0,0,0,.146.36.36,0,0,0,.335.226H63.471a.372.372,0,0,0,.366-.372V64.634H56.644a.756.756,0,0,1-.756-.768" transform="translate(-17.845 -24.482)" fill="#cccedd" fill-rule="evenodd"/>
        <path id="패스_6625" data-name="패스 6625" d="M62.13,90.43Z" transform="translate(-24.263 -35.314)" fill="#fff" fill-rule="evenodd"/>
        <path id="패스_6626" data-name="패스 6626" d="M73.588,53.645a.439.439,0,0,0-.183.323H63.044V40.2a.4.4,0,0,0,.189-.079.457.457,0,0,0,.134-.152v12.86a.823.823,0,0,0,.823.811h9.4m0-1H64.4V38.975h9.185a1.658,1.658,0,0,1,.695.268,3.756,3.756,0,0,1,.329.226h0a.487.487,0,0,0,0,.091V52.177h0a1.408,1.408,0,0,1-1.012.445m2.475-13.488a1.219,1.219,0,0,1,.518-.158h9.185V52.628H76.593a1.335,1.335,0,0,1-.8-.25,1.4,1.4,0,0,1-.213-.189l-.049-.055V39.572a.672.672,0,0,0,0-.1.494.494,0,0,0,.061-.372.506.506,0,0,0,.5,0m10.885.987a.433.433,0,0,0,.189.079v13.8H76.806a.457.457,0,0,0-.183-.323h9.337a.811.811,0,0,0,.823-.811V39.828a.427.427,0,0,0,.171.28m.341-.823h-.061a.457.457,0,0,0-.451.384v-.884A.823.823,0,0,0,85.967,38H76.593a2.255,2.255,0,0,0-.981.274.482.482,0,0,0-.256.536l-.11-.091-.091-.11a4.748,4.748,0,0,0-.664-.4A2.212,2.212,0,0,0,73.753,38H64.208a.823.823,0,0,0-.823.811v.768a.475.475,0,0,0-.408-.256H62.91a.78.78,0,0,0-.78.774V54.115a.774.774,0,0,0,.78.774H73.546a.774.774,0,0,0,.78-.774v-.11a.457.457,0,0,0-.268-.414,2.468,2.468,0,0,0,.9-.354l.122-.1.146.116a2.365,2.365,0,0,0,.92.372.469.469,0,0,0-.262.408v.11a.774.774,0,0,0,.792.744H87.314a.774.774,0,0,0,.78-.774V40.1a.78.78,0,0,0-.78-.774" transform="translate(-24.263 -14.84)" fill="#cccedd" fill-rule="evenodd"/>
        <path id="패스_6627" data-name="패스 6627" d="M66.746,42.921h8.106a.366.366,0,1,0,0-.731H66.746a.366.366,0,0,0,0,.731m-.372,2.2a.384.384,0,0,0,.4.366h8.106a.366.366,0,1,0,0-.731H66.746a.384.384,0,0,0-.4.366m.4,2.578h8.106a.366.366,0,1,0,0-.731H66.746a.366.366,0,0,0,0,.731m0,2.572h8.106a.366.366,0,1,0,0-.731H66.746a.366.366,0,0,0,0,.731m8.106,2.206a.366.366,0,0,0,0-.731H66.746a.366.366,0,0,0,0,.731Zm2.993-9.922a.378.378,0,0,0,.39.366h8.137a.366.366,0,1,0,0-.731H78.259a.378.378,0,0,0-.39.366m0,2.572a.378.378,0,0,0,.39.366h8.112a.366.366,0,1,0,0-.731H78.259a.378.378,0,0,0-.39.366M86.4,46.956H78.259a.366.366,0,1,0,0,.731h8.112a.366.366,0,1,0,0-.731m0,2.572H78.259a.366.366,0,1,0,0,.731h8.112a.366.366,0,1,0,0-.731m0,2.206H78.259a.366.366,0,1,0,0,.731h8.112a.366.366,0,0,0,0-.731" transform="translate(-25.911 -16.476)" fill="#cccedd" fill-rule="evenodd"/>
        <rect id="사각형_2791" data-name="사각형 2791" width="73" height="73" transform="translate(-0.232 0.138)" fill="none"/>
      </g>
    </g>
  </g>
</svg>
