<svg xmlns="http://www.w3.org/2000/svg" width="73" height="73" viewBox="0 0 73 73">
  <g id="icon-solution-09" transform="translate(-0.302 -0.138)">
    <path id="패스_6641" data-name="패스 6641" d="M86.958,56.785v-9.2a.859.859,0,0,1-.39.1,1.03,1.03,0,0,1-.792-.408L85,46.32l-.372.274V56.785Z" transform="translate(-33.049 -18.089)" fill="#cccedd" fill-rule="evenodd"/>
    <path id="패스_6642" data-name="패스 6642" d="M62.122,63.958a.7.7,0,0,0,.695-.683V62.209h-.792c-.652,0-1.182-.347-1.182-.987V58.053a1.17,1.17,0,0,1,1.182-1.158h.792l.366-10.575L43.8,61.045l-5.424-6.589L28.71,61.709v1.566a.689.689,0,0,0,.695.683Z" transform="translate(-11.212 -18.089)" fill="#cccedd" fill-rule="evenodd"/>
    <path id="패스_6643" data-name="패스 6643" d="M28.71,55.623,39.022,48.23l5.443,6.454L60.1,42.83H29.4a.7.7,0,0,0-.695.713Z" transform="translate(-11.212 -16.726)" fill="#cccedd" fill-rule="evenodd"/>
    <path id="패스_6644" data-name="패스 6644" d="M56,78.929a.609.609,0,1,0-.579-.579.579.579,0,0,0,.579.579" transform="translate(-21.642 -30.348)" fill="#cccedd" fill-rule="evenodd"/>
    <g id="그룹_7795" data-name="그룹 7795" transform="translate(14.396 15.642)">
      <path id="패스_6645" data-name="패스 6645" d="M39.363,66.552H48.28V60.457H39.363ZM66.144,49.834v3.224a.207.207,0,0,1-.2.207H59.994a.207.207,0,0,1-.207-.207V49.834a.207.207,0,0,1,.207-.2h5.949a.207.207,0,0,1,.2.207ZM67.07,30.7a1.219,1.219,0,0,0-.323.049l-8.271,2.334a1.121,1.121,0,0,0-.524.323.884.884,0,0,0-.213.609.957.957,0,0,0,.134.469.841.841,0,0,0,.1.177l.762.957-.689.524L42.514,47.871l-5.406-6.4L26.862,48.786l-.116.085v4.76l.116-.085,9.6-6.851,5.485,6.467L60.78,38.906l.36-.274.762.951a.993.993,0,0,0,.774.408.89.89,0,0,0,.378-.1v8.764H60.006a1.182,1.182,0,0,0-1.176,1.176v3.224a1.182,1.182,0,0,0,1.176,1.176h3.047v5.059a.213.213,0,0,1-.207.207H24.8a.213.213,0,0,1-.207-.207V34.048a.213.213,0,0,1,.207-.207H56.4a.512.512,0,0,0,.481-.488.488.488,0,0,0-.481-.481H24.8a1.176,1.176,0,0,0-1.176,1.176V59.293A1.176,1.176,0,0,0,24.8,60.469H38.4v6.095H36.706a.485.485,0,0,0,0,.969H51.059a.488.488,0,0,0,.481-.488.481.481,0,0,0-.481-.481H49.23V60.469H62.858a1.17,1.17,0,0,0,1.17-1.176V54.234h1.926a1.182,1.182,0,0,0,1.17-1.176V49.834a1.182,1.182,0,0,0-1.17-1.176H64.017V38.613a.488.488,0,0,0-.189-.372.372.372,0,0,0-.085-.043.481.481,0,0,0-.609.134l-.475.64h0L61.31,37.279,42.075,51.839l-5.424-6.467L27.71,51.76V49.377l9.24-6.6,5.418,6.418L60.11,35.785l-1.377-1.749h0l7.875-2.225-2.712,4.949a.488.488,0,0,0,.183.64h0a.481.481,0,0,0,.609-.2l2.907-5.309a1,1,0,0,0,.146-.5.7.7,0,0,0-.232-.524.756.756,0,0,0-.439-.165Zm3.657-1.871a.512.512,0,0,0,.037-.683.427.427,0,0,0-.609-.037l-1.432,1.365a.506.506,0,0,0-.03.658.427.427,0,0,0,.609.043Zm-2.858-3.145A.445.445,0,0,0,67.3,26l-.64,2.164a.475.475,0,0,0,.3.609.457.457,0,0,0,.567-.311l.609-2.164a.469.469,0,0,0-.3-.609m4.5,6.564H69.825a.4.4,0,1,0,0,.78h2.542a.4.4,0,1,0,0-.78" transform="translate(-23.62 -25.665)" fill="#cccedd" fill-rule="evenodd"/>
    </g>
    <g id="그룹_7796" data-name="그룹 7796" transform="translate(51.222 40.436)">
      <path id="패스_6646" data-name="패스 6646" d="M88.587,66.354H84.522a.4.4,0,1,0,0,.774h4.065a.4.4,0,1,0,0-.774" transform="translate(-84.041 -66.345)" fill="#cccedd" fill-rule="evenodd"/>
    </g>
    <rect id="사각형_2793" data-name="사각형 2793" width="73" height="73" transform="translate(0.302 0.138)" fill="none"/>
  </g>
</svg>
