<svg xmlns="http://www.w3.org/2000/svg" width="73" height="73" viewBox="0 0 73 73">
  <g id="icon-solution-01" transform="translate(-10 -13)">
    <g id="레이어_1" data-name="레이어 1" transform="translate(10 13)" style="mix-blend-mode: darken;isolation: isolate">
      <g id="그룹_7802" data-name="그룹 7802" transform="translate(14.551 14.419)">
        <path id="패스_6682" data-name="패스 6682" d="M25.258,25.122l.128-.055H66.02a.189.189,0,0,1,.183.183V45.558a.482.482,0,0,0,0,.079.536.536,0,0,0,.53.463.549.549,0,0,0,.549-.542V25.25A1.286,1.286,0,0,0,66,23.97H25.38a1.286,1.286,0,0,0-1.28,1.28V52.024a.549.549,0,0,0,1.1,0V25.25l.055-.128Z" transform="translate(-24.1 -23.97)" fill="#cccedd" fill-rule="evenodd"/>
      </g>
      <path id="패스_6683" data-name="패스 6683" d="M58.037,45.738a2.212,2.212,0,0,1-.232-.987,2.279,2.279,0,0,1,4.333-.993l3.407,7.07a.725.725,0,0,0,.323-.609V30.781a.737.737,0,0,0-.737-.731h-34.6a.731.731,0,0,0-.731.731V50.242a.731.731,0,0,0,.731.731H60.561l-2.523-5.235Z" transform="translate(-11.775 -11.925)" fill="none" stroke="#cccedd" stroke-miterlimit="10" stroke-width="1" fill-rule="evenodd"/>
      <path id="패스_6684" data-name="패스 6684" d="M64.884,83.16ZM64,83.379Z" transform="translate(-25.131 -32.665)" fill="#fff" fill-rule="evenodd"/>
      <path id="패스_6685" data-name="패스 6685" d="M39.431,81.575l.414-1.713a.555.555,0,0,1,.5-.39h5.327a.482.482,0,0,1,.311.122.512.512,0,0,1,.189.268l.439,1.713h0v.14a.183.183,0,0,1-.116.037H39.571a.213.213,0,0,1-.122-.037v-.079Zm.14,1.109h6.875a1.054,1.054,0,0,0,1.048-1.329h0l-.414-1.707h0a1.457,1.457,0,0,0-.518-.792,1.475,1.475,0,0,0-.89-.317H40.345a1.493,1.493,0,0,0-1.414,1.109l-.408,1.707h0a1.073,1.073,0,0,0-.037.28,1.061,1.061,0,0,0,.311.756A1.1,1.1,0,0,0,39.571,82.684Zm23.361.695H19.939a.469.469,0,0,0,0,.939H62.932a.469.469,0,1,0,0-.939" transform="translate(-7.741 -30.861)" fill="#cccedd" fill-rule="evenodd"/>
      <g id="그룹_7803" data-name="그룹 7803" transform="translate(9.016 30.541)">
        <path id="패스_6686" data-name="패스 6686" d="M62.395,71.308l-.171-.091-9.977-6.741a1.042,1.042,0,0,1-.439-.9,1.414,1.414,0,0,1,.25-.792,1.341,1.341,0,0,1,1.085-.609.993.993,0,0,1,.549.165L57.8,65.115l.317-.274.146-.1.414-.262-5.43-11.263a1.184,1.184,0,1,1,2.133-1.03L59.5,60.77l1.06-.244v-.037a1.219,1.219,0,0,1,.664-1.067,1.158,1.158,0,0,1,.506-.116,1.219,1.219,0,0,1,.847.36L63.7,60.8l-.189-1.585v-.146a1.182,1.182,0,0,1,.664-1.061,1.219,1.219,0,0,1,.518-.116,1.182,1.182,0,0,1,1.067.67h0l.1.2,1.036-.207a1.182,1.182,0,0,1,2.243-.457l2.005,4.157h0a1.724,1.724,0,0,1,.091.213l.14.317h0a10.858,10.858,0,0,1,1.6,4.73c0,.872-.329,1.134-.378,1.17l-.408.262.207.439,2.072,4.266L68.105,76.7l-2.279-4.73-.414.14a3.7,3.7,0,0,1-.573.049,4.4,4.4,0,0,1-2.438-.823h0Zm2.779,1.908,2.438,5L75.956,74.2l-2.377-4.931a2.724,2.724,0,0,0,.512-1.749,11.771,11.771,0,0,0-1.725-5.242c-.049-.1-.079-.171-.11-.25l-.116-.268h0l-2.005-4.157a2.279,2.279,0,0,0-2.1-1.292,2.212,2.212,0,0,0-.987.232,2.255,2.255,0,0,0-.908.792,2.267,2.267,0,0,0-1.475-.549,2.316,2.316,0,0,0-.993.226,2.249,2.249,0,0,0-1.121,1.347,2.212,2.212,0,0,0-.8-.152,2.261,2.261,0,0,0-.981.226h0a2.261,2.261,0,0,0-.817.67l-.158-.323-3.407-7.07a2.279,2.279,0,0,0-4.333.993,2.212,2.212,0,0,0,.232.987l2.523,5.235,2.023,4.205-2.517-1.7h0a2.084,2.084,0,0,0-1.158-.354,2.438,2.438,0,0,0-1.993,1.1,2.609,2.609,0,0,0-.408,1.03H21.236a1.829,1.829,0,0,0-.878.256,1.755,1.755,0,0,0-.652.609L15.44,71.527h0a3.724,3.724,0,0,0-.421,1.591v1.95h0a1.262,1.262,0,0,0,1.268,1.3l49.094.14a.549.549,0,1,0,0-1.091h-.286l-48.8-.14h0a.158.158,0,0,1-.158-.158V73.142a2.73,2.73,0,0,1,.28-1.036h0l4.266-7.454a.78.78,0,0,1,.25-.232.664.664,0,0,1,.329-.1H50.845a2.03,2.03,0,0,0,.792,1.085l10.026,6.759.177.091a5.894,5.894,0,0,0,2.072.89,4.589,4.589,0,0,0,.926.1h.335Z" transform="translate(-15.019 -50.422)" fill="#cccedd" fill-rule="evenodd"/>
      </g>
      <path id="패스_6687" data-name="패스 6687" d="M52.164,39.968a1.219,1.219,0,1,0-1.219-1.219,1.219,1.219,0,0,0,1.219,1.219m4.833,0a1.219,1.219,0,1,0-1.219-1.219A1.219,1.219,0,0,0,57,39.968m4.839,0a1.219,1.219,0,1,0-1.219-1.219,1.219,1.219,0,0,0,1.219,1.219m-9.752,4.407a1.219,1.219,0,1,0-1.219-1.219,1.219,1.219,0,0,0,1.219,1.219m4.839,0a1.219,1.219,0,1,0-1.219-1.219,1.219,1.219,0,0,0,1.219,1.219m4.833,0a1.219,1.219,0,1,0-1.219-1.219,1.219,1.219,0,0,0,1.219,1.219m-9.679,4.559a1.219,1.219,0,1,0-1.219-1.219,1.219,1.219,0,0,0,1.219,1.219m4.839,0A1.219,1.219,0,1,0,55.7,47.714a1.219,1.219,0,0,0,1.219,1.219m4.833,0a1.219,1.219,0,1,0-1.219-1.219,1.219,1.219,0,0,0,1.219,1.219" transform="translate(-19.999 -14.846)" fill="none" stroke="#cccedd" stroke-miterlimit="10" stroke-width="1"/>
      <rect id="사각형_2798" data-name="사각형 2798" width="73" height="73" transform="translate(0 0)" fill="none"/>
    </g>
  </g>
</svg>
