<svg xmlns="http://www.w3.org/2000/svg" width="73" height="73" viewBox="0 0 73 73">
  <g id="icon-solution-07" transform="translate(-0.371 -0.138)">
    <g id="레이어_1" data-name="레이어 1">
      <path id="패스_6674" data-name="패스 6674" d="M29.785,58.17a.481.481,0,0,0,.475-.481V34.108a.171.171,0,0,1,.165-.165H45.5a.481.481,0,1,0,0-.963H30.425a1.115,1.115,0,0,0-1.115,1.128V57.688a.482.482,0,0,0,.475.481M65.891,33.992l.049.116V57.688a.481.481,0,1,0,.957,0V34.108a1.121,1.121,0,0,0-1.121-1.115H61.564a.481.481,0,1,0,0,.963h4.212Z" transform="translate(-11.446 -12.879)" fill="#cccedd" fill-rule="evenodd"/>
      <path id="패스_6675" data-name="패스 6675" d="M43.116,49.789l10.416-5.7a1.828,1.828,0,0,1,1.828.037l3.322-2.365a.488.488,0,0,1,.677.1.475.475,0,0,1-.128.677L56,44.84a1.737,1.737,0,0,1-.7,2.334l-7.984,4.461v5.272H35.534V52.032a2.273,2.273,0,0,1,2.292-2.261ZM37.35,44.913a1.3,1.3,0,0,1,1.3-1.292h0A4.266,4.266,0,0,1,39.9,41.792a3.775,3.775,0,0,1,4.876-.006A4.266,4.266,0,0,1,46,43.615a1.3,1.3,0,0,1,1.316,1.274v.451a1.292,1.292,0,0,1-1.28,1.286,4.059,4.059,0,0,1-2.572,2.554H41.238a4.059,4.059,0,0,1-2.572-2.554h0a1.292,1.292,0,0,1-1.3-1.286v-.451ZM33.76,56.005v.268a.64.64,0,0,0,.646.609H64.88a.646.646,0,0,0,.646-.609V39.336a.646.646,0,0,0-.646-.609H62.4v1.219a1.1,1.1,0,0,1-1.1,1.091h-5.8l-1.6,2.072a1.073,1.073,0,0,1-.238.232.7.7,0,0,1-.4.128.61.61,0,0,1-.317-.091.658.658,0,0,1-.207-.2,1.006,1.006,0,0,1-.14-.433L52.441,41H49.3a1.1,1.1,0,0,1-1.1-1.091V38.69H34.406a.64.64,0,0,0-.646.609Z" transform="translate(-13.184 -15.109)" fill="#cccedd" fill-rule="evenodd"/>
      <path id="패스_6676" data-name="패스 6676" d="M40.5,62.86a.421.421,0,0,0-.384.451v3.047h.774V63.311a.427.427,0,0,0-.39-.451" transform="translate(-15.667 -24.548)" fill="#cccedd" fill-rule="evenodd"/>
      <path id="패스_6677" data-name="패스 6677" d="M36.94,58.649h.9V53.712a1.377,1.377,0,0,1,1.365-1.39h5.485L55.2,46.4h0a.835.835,0,0,1,.427-.116.872.872,0,0,1,.768.451.939.939,0,0,1,.11.439.878.878,0,0,1-.457.756l-8.326,4.833v5.882h.9V53.292l7.862-4.553a1.828,1.828,0,0,0,.89-1.56,1.774,1.774,0,0,0-.2-.811l3.2-2.34a.488.488,0,0,0,.1-.677.469.469,0,0,0-.664-.11l-3.285,2.438a1.731,1.731,0,0,0-1.792-.037h0L44.437,51.414H39.2a2.273,2.273,0,0,0-2.261,2.3Z" transform="translate(-14.426 -16.851)" fill="#fff" fill-rule="evenodd"/>
      <path id="패스_6678" data-name="패스 6678" d="M58.4,26.957H70.518a.14.14,0,0,1,.14.134v7.692a.146.146,0,0,1-.14.14H64.161l-1.524,2.011-.183-2.011H58.4a.146.146,0,0,1-.14-.14V27.1a.146.146,0,0,1,.14-.14m0,8.929h3.169l.165,1.768a.92.92,0,0,0,.134.439.646.646,0,0,0,.536.3.7.7,0,0,0,.4-.128,1.255,1.255,0,0,0,.238-.238l1.615-2.139h5.869a1.109,1.109,0,0,0,1.115-1.1V27.091A1.115,1.115,0,0,0,70.518,26H58.4a1.115,1.115,0,0,0-1.115,1.1v7.679a1.115,1.115,0,0,0,1.115,1.1" transform="translate(-22.369 -10.153)" fill="#cccedd" fill-rule="evenodd"/>
      <path id="패스_6679" data-name="패스 6679" d="M61.588,30.568h9.1a.4.4,0,1,0,0-.774h-9.1a.4.4,0,1,0,0,.774m0,2.322h9.1a.4.4,0,1,0,0-.774h-9.1a.451.451,0,0,0-.488.39.439.439,0,0,0,.488.384m8.728,1.938a.394.394,0,1,0,0-.774h-4.1a.439.439,0,0,0-.469.39.433.433,0,0,0,.469.384Z" transform="translate(-23.861 -11.632)" fill="#cccedd" fill-rule="evenodd"/>
      <g id="그룹_7801" data-name="그룹 7801" transform="translate(12.824 45.675)">
        <path id="패스_6680" data-name="패스 6680" d="M22.125,85.478h0a.14.14,0,0,1-.14-.134V83.637a2.066,2.066,0,0,1,.079-.475,1.786,1.786,0,0,1,.171-.445L25.977,76.2a.609.609,0,0,1,.219-.2.713.713,0,0,1,.286-.091H63.106a.664.664,0,0,1,.286.091.689.689,0,0,1,.226.2l3.718,6.521a1.621,1.621,0,0,1,.11.262H23.819a.414.414,0,0,0,0,.823H67.562l-.049,1.658h0l-.049.1-.1.049h0Zm46.053-3.236-.421.238.421-.238L64.453,75.72a1.627,1.627,0,0,0-.573-.561,1.591,1.591,0,0,0-.774-.219H26.5a1.566,1.566,0,0,0-.768.219,1.53,1.53,0,0,0-.573.561l-3.748,6.534h0a3.114,3.114,0,0,0-.372,1.39v1.694h0a1.1,1.1,0,0,0,1.1,1.1h0l45.2.122h0a1.115,1.115,0,0,0,1.1-1.085h0l.061-1.828h0V83.6a3.108,3.108,0,0,0-.323-1.359Z" transform="translate(-21.04 -74.94)" fill="#cccedd" fill-rule="evenodd"/>
      </g>
      <path id="패스_6681" data-name="패스 6681" d="M59.15,83.858v.116a.134.134,0,0,1-.1,0H53.14a.134.134,0,0,1-.1,0v-.116l.354-1.432a.421.421,0,0,1,.158-.232.482.482,0,0,1,.268-.1H58.37a.5.5,0,0,1,.268.1.421.421,0,0,1,.158.232l.354,1.432.39-.091Zm-6.01.92h5.894a.914.914,0,0,0,.658-.25.817.817,0,0,0,.268-.609,1.048,1.048,0,0,0,0-.238h0l-.354-1.438a1.219,1.219,0,0,0-.451-.664,1.286,1.286,0,0,0-.762-.268H53.8a1.286,1.286,0,0,0-.762.268,1.219,1.219,0,0,0-.451.664l-.347,1.438a.8.8,0,0,0,0,.238.817.817,0,0,0,.268.609.914.914,0,0,0,.628.25Z" transform="translate(-20.399 -31.753)" fill="#cccedd" fill-rule="evenodd"/>
      <rect id="사각형_2797" data-name="사각형 2797" width="73" height="73" transform="translate(0.371 0.138)" fill="none"/>
    </g>
  </g>
</svg>
