<svg xmlns="http://www.w3.org/2000/svg" xmlns:xlink="http://www.w3.org/1999/xlink" width="62" height="62" viewBox="0 0 62 62">
  <defs>
    <clipPath id="clip-path">
      <rect width="62" height="62" fill="none"/>
    </clipPath>
  </defs>
  <g id="icon-bigdata" clip-path="url(#clip-path)">
    <g id="icon-bigdata-2" data-name="icon-bigdata" transform="translate(20776 -13462)">
      <path id="패스_6501" data-name="패스 6501" d="M120.043,124.379H82.611a1.216,1.216,0,0,0-1.217,1.217v11.063a1.217,1.217,0,0,0,1.217,1.217h37.433a1.216,1.216,0,0,0,1.217-1.217V125.6a1.216,1.216,0,0,0-1.217-1.217m-18.716,9.467H85.35v-6.391h15.977Z" transform="translate(-20846.326 13354.328)" fill="#fff"/>
      <path id="패스_6502" data-name="패스 6502" d="M120.043,0H82.611a1.216,1.216,0,0,0-1.217,1.217V12.28A1.216,1.216,0,0,0,82.611,13.5h37.433a1.216,1.216,0,0,0,1.217-1.217V1.218A1.216,1.216,0,0,0,120.043,0M101.327,9.632H85.35V3.241h15.977Z" transform="translate(-20846.326 13462.387)" fill="#fff"/>
      <path id="패스_6503" data-name="패스 6503" d="M120.638,384.016h-3.985v-3.983a1.993,1.993,0,0,0-1.992-1.993h-1a1.993,1.993,0,0,0-1.992,1.993v3.983H107.7a1.985,1.985,0,0,0-1.976,1.827h-9.55v1.743h9.533v.082a1.993,1.993,0,0,0,1.993,1.993h12.934a1.992,1.992,0,0,0,1.992-1.993v-.082h9.534v-1.743h-9.549a1.987,1.987,0,0,0-1.976-1.827" transform="translate(-20859.172 13133.952)" fill="#4285f4"/>
      <path id="패스_6504" data-name="패스 6504" d="M120.043,247.553H82.611a1.217,1.217,0,0,0-1.217,1.218v11.063a1.216,1.216,0,0,0,1.217,1.216h37.433a1.215,1.215,0,0,0,1.217-1.216V248.771a1.217,1.217,0,0,0-1.217-1.218M101.327,257.5H85.35v-6.39h15.977Z" transform="translate(-20846.326 13247.316)" fill="#fff"/>
      <rect id="사각형_2739" data-name="사각형 2739" width="62" height="62" transform="translate(-20776 13462)" fill="none"/>
    </g>
  </g>
</svg>
