<svg xmlns="http://www.w3.org/2000/svg" width="62" height="62" viewBox="0 0 62 62">
  <g id="icon-cloud" transform="translate(21140 -13459)">
    <path id="패스_6497" data-name="패스 6497" d="M28.833,367.848H1.876a.877.877,0,0,0-.876.877v7.966a.876.876,0,0,0,.876.877H28.833a.876.876,0,0,0,.877-.877v-7.967a.876.876,0,0,0-.877-.876m-13.478,7.161H3.849v-4.6H15.355Z" transform="translate(-21140.883 13134.622)" fill="#fff"/>
    <path id="패스_6498" data-name="패스 6498" d="M28.833,169.9H1.876a.877.877,0,0,0-.876.877v7.967a.877.877,0,0,0,.876.876H28.833a.877.877,0,0,0,.877-.876v-7.968a.876.876,0,0,0-.877-.876m-13.478,6.936H3.849v-4.6H15.355Z" transform="translate(-21140.883 13309.176)" fill="#fff"/>
    <path id="패스_6499" data-name="패스 6499" d="M196,85.09a10.338,10.338,0,0,0-1.118.063,11.074,11.074,0,0,0-8.958-4.34,11.073,11.073,0,0,0-21.4,2.584h2.364a8.73,8.73,0,0,1,17.07-1.057l.26.957.986-.1a8.737,8.737,0,0,1,8.166,3.861l.421.632.747-.126A8.737,8.737,0,1,1,196,104.913H176.23v1.225a2.914,2.914,0,0,1-.229,1.113h20a11.081,11.081,0,1,0,0-22.162" transform="translate(-21285.084 13394.14)" fill="#4285f4"/>
    <path id="패스_6500" data-name="패스 6500" d="M28.833,269.351H1.876a.876.876,0,0,0-.876.876v7.968a.876.876,0,0,0,.876.877H28.833a.876.876,0,0,0,.877-.877v-7.968a.877.877,0,0,0-.877-.876m-13.478,6.817H3.849v-4.6H15.355Z" transform="translate(-21140.883 13221.479)" fill="#fff"/>
    <rect id="사각형_2738" data-name="사각형 2738" width="62" height="62" transform="translate(-21140 13459)" fill="none"/>
  </g>
</svg>
