<svg xmlns="http://www.w3.org/2000/svg" width="62" height="62" viewBox="0 0 62 62">
  <g id="icon-fintec" transform="translate(21526 -13459)">
    <path id="패스_6505" data-name="패스 6505" d="M24.128,3V8.465h-13.6V46.721h13.6v5.465H9.52a4.7,4.7,0,0,1-4.5-4.5L5,47.268V7.919A4.756,4.756,0,0,1,9.544,3Z" transform="translate(-21519.262 13462.351)" fill="#fff"/>
    <rect id="사각형_2741" data-name="사각형 2741" width="8.198" height="4.099" transform="translate(-21503.332 13499.508)" fill="#fff"/>
    <rect id="사각형_2742" data-name="사각형 2742" width="8.198" height="4.099" transform="translate(-21503.332 13491.31)" fill="#fff"/>
    <rect id="사각형_2743" data-name="사각형 2743" width="8.198" height="4.099" transform="translate(-21503.332 13483.112)" fill="#fff"/>
    <path id="패스_6506" data-name="패스 6506" d="M19.1,26.2A4.1,4.1,0,1,0,15,22.1a4.1,4.1,0,0,0,4.1,4.1" transform="translate(-21501.936 13488.339)" fill="#4285f4" fill-rule="evenodd"/>
    <path id="패스_6507" data-name="패스 6507" d="M21.1,17.2A4.1,4.1,0,1,0,17,13.1a4.1,4.1,0,0,0,4.1,4.1" transform="translate(-21498.471 13472.745)" fill="#4285f4" fill-rule="evenodd"/>
    <path id="패스_6508" data-name="패스 6508" d="M18.1,4A4.1,4.1,0,1,1,14,8.1,4.1,4.1,0,0,1,18.1,4" transform="translate(-21503.67 13464.083)" fill="#4285f4" fill-rule="evenodd"/>
    <path id="패스_6509" data-name="패스 6509" d="M15.224,18.8H13V16.064h2.224c1.448,0,2.282-.161,2.623-.506.653-.659.634-2.924.607-6.356l-.016-2.7h2.733l.016,2.678c.036,4.552.057,6.837-1.4,8.307-1.145,1.153-2.869,1.312-4.563,1.312" transform="translate(-21505.4 13468.414)" fill="#4285f4"/>
    <path id="패스_6510" data-name="패스 6510" d="M19.711,18.351c-.607,0-1.246,0-1.924-.008L13,18.334V15.6l4.8.011c4.4.025,7.312.044,8.225-.894.465-.47.667-1.481.628-3.17l2.733-.06c.038,1.8-.1,3.812-1.415,5.148-1.508,1.538-4,1.713-8.263,1.713" transform="translate(-21505.4 13477.058)" fill="#4285f4"/>
    <path id="패스_6511" data-name="패스 6511" d="M23.925,22.85l-2.733-.038c.016-1.145.046-3.276-.383-3.7-.4-.407-2.23-.393-4.544-.366L13,18.756V16.024l3.238-.014c3.421-.033,5.3-.049,6.509,1.172,1.15,1.156,1.216,2.992,1.178,5.667" transform="translate(-21505.4 13484.875)" fill="#4285f4"/>
    <rect id="사각형_2744" data-name="사각형 2744" width="62" height="62" transform="translate(-21526 13459)" fill="none"/>
  </g>
</svg>
