<svg xmlns="http://www.w3.org/2000/svg" width="74" height="73" viewBox="0 0 74 73">
  <g id="icon-solution-05" transform="translate(0.396 -0.138)">
    <g id="레이어_1" data-name="레이어 1">
      <g id="그룹_7800" data-name="그룹 7800" transform="translate(16.712 19.534)">
        <path id="패스_6665" data-name="패스 6665" d="M66.171,57.758a.207.207,0,0,1-.2.2H28.56a.207.207,0,0,1-.2-.2V33.19a.2.2,0,0,1,.2-.2H65.994a.2.2,0,0,1,.2.2V57.758Zm-23.16,7.423H51.7V58.9H43.011ZM65.994,32.05H28.56a1.134,1.134,0,0,0-1.14,1.14V57.758a1.14,1.14,0,0,0,1.14,1.14H42.084v6.284H40.432a.469.469,0,1,0,0,.939H54.4a.469.469,0,0,0,0-.939H52.634V58.9h13.36a1.14,1.14,0,0,0,1.14-1.14V33.19a1.14,1.14,0,0,0-1.14-1.14Z" transform="translate(-27.42 -32.05)" fill="#cccedd" fill-rule="evenodd"/>
      </g>
      <path id="패스_6666" data-name="패스 6666" d="M59.739,72.339a.609.609,0,1,0-.609-.609.609.609,0,0,0,.609.609" transform="translate(-23.091 -27.774)" fill="#cccedd" fill-rule="evenodd"/>
      <path id="패스_6667" data-name="패스 6667" d="M65.495,37.51H33.363a.433.433,0,0,0-.433.433V56.227a.433.433,0,0,0,.433.433H65.495a.433.433,0,0,0,.433-.433V37.943a.433.433,0,0,0-.433-.433" transform="translate(-12.86 -14.648)" fill="#cccedd" fill-rule="evenodd"/>
      <path id="패스_6668" data-name="패스 6668" d="M60.217,55.683l-.067-.256h-.573V53.983a1.377,1.377,0,1,0-.689,0v1.451h-.555l-.073.256" transform="translate(-22.593 -20.023)" fill="#fff" fill-rule="evenodd"/>
      <path id="패스_6669" data-name="패스 6669" d="M52.674,54.488a.368.368,0,1,0,.567-.469c-.1-.122-.189-.244-.28-.366a4.876,4.876,0,0,1-1.061-2.9,4.553,4.553,0,0,1,.689-2.347A5.821,5.821,0,0,1,53,47.8l.061-.073c.061-.073.116-.128.146-.171l.043-.037h0a.366.366,0,1,0-.506-.53,4.906,4.906,0,0,0-.8,1.036,5.485,5.485,0,0,0-.719,1.9v1.646a6.18,6.18,0,0,0,1.432,2.919" transform="translate(-20.006 -18.309)" fill="#fff" fill-rule="evenodd"/>
      <path id="패스_6670" data-name="패스 6670" d="M47.14,49.623a7.984,7.984,0,0,0,1.134,3.986,7.74,7.74,0,0,0,1.128,1.53.366.366,0,1,0,.518-.518h0s-.116-.122-.25-.286a7.8,7.8,0,0,1-.823-1.182,6.93,6.93,0,0,1,.037-7.143,7.759,7.759,0,0,1,.7-1.024l.049-.061.177-.207.061-.067h0a.366.366,0,1,0-.518-.518,7.8,7.8,0,0,0-1.079,1.505,8.021,8.021,0,0,0-1.115,3.986" transform="translate(-18.409 -17.192)" fill="#fff" fill-rule="evenodd"/>
      <path id="패스_6671" data-name="패스 6671" d="M46.44,55.786a.372.372,0,0,0,.518-.037.366.366,0,0,0-.037-.518h0A7.808,7.808,0,0,1,45.538,53.4a9.752,9.752,0,0,1-1.286-4.925,9.569,9.569,0,0,1,1.341-4.943,8.594,8.594,0,0,1,.926-1.256c.122-.14.226-.244.293-.311l.079-.073h0a.366.366,0,1,0-.469-.561,7.862,7.862,0,0,0-1.481,1.829,10.361,10.361,0,0,0-1.451,5.37A10.52,10.52,0,0,0,44.965,53.9a7.984,7.984,0,0,0,1.475,1.877M57.026,45.321s.116.116.256.286a5.565,5.565,0,0,1,.451.652,4.547,4.547,0,0,1,.652,2.292,4.833,4.833,0,0,1-1.06,2.907l-.274.36a.366.366,0,0,0,.049.518.372.372,0,0,0,.518-.049,6.229,6.229,0,0,0,1.42-2.926v-1.64a5.6,5.6,0,0,0-.719-1.9,5.156,5.156,0,0,0-.8-1.036.366.366,0,0,0-.506.53Z" transform="translate(-16.983 -16.109)" fill="#fff" fill-rule="evenodd"/>
      <path id="패스_6672" data-name="패스 6672" d="M70.564,49.6a7.271,7.271,0,0,1-1.018,3.62,7.758,7.758,0,0,1-.7,1.024L68.8,54.3c-.073.085-.134.158-.183.207l-.061.067h0a.372.372,0,0,0,0,.518.36.36,0,0,0,.518,0,7.466,7.466,0,0,0,1.128-1.53,8.063,8.063,0,0,0-1.121-9.5.366.366,0,0,0-.524,0,.372.372,0,0,0,0,.518h0s.116.116.256.286a8.3,8.3,0,0,1,.8,1.17,7.241,7.241,0,0,1,.969,3.535" transform="translate(-26.73 -17.167)" fill="#fff" fill-rule="evenodd"/>
      <path id="패스_6673" data-name="패스 6673" d="M73.018,43.112a7.759,7.759,0,0,0-1.475-1.828.366.366,0,0,0-.518.043.372.372,0,0,0,.043.518h0A7.314,7.314,0,0,1,72.451,43.6a9.624,9.624,0,0,1,1.28,4.876A9.752,9.752,0,0,1,72.384,53.5a8.327,8.327,0,0,1-.92,1.28c-.128.146-.232.25-.3.323l-.085.073h0a.36.36,0,0,0-.037.518.372.372,0,0,0,.518.037,8.368,8.368,0,0,0,1.463-1.859,10.52,10.52,0,0,0,1.451-5.406,10.276,10.276,0,0,0-1.457-5.37" transform="translate(-27.703 -16.088)" fill="#fff" fill-rule="evenodd"/>
      <rect id="사각형_2796" data-name="사각형 2796" width="74" height="73" transform="translate(-0.396 0.138)" fill="none"/>
    </g>
  </g>
</svg>
