<svg xmlns="http://www.w3.org/2000/svg" width="73" height="73" viewBox="0 0 73 73">
  <g id="icon-solution-06" transform="translate(0 -0.138)">
    <g id="레이어_1" data-name="레이어 1">
      <g id="그룹_7780" data-name="그룹 7780" transform="translate(12.952 21.161)">
        <path id="패스_6606" data-name="패스 6606" d="M61.933,61.623a.219.219,0,0,1-.213.213H22.469a.213.213,0,0,1-.213-.213V35.939a.213.213,0,0,1,.213-.207H61.72a.219.219,0,0,1,.213.207Zm-24.3,7.765h9.093v-6.57H37.633ZM61.72,34.744H22.469a1.219,1.219,0,0,0-1.219,1.219V61.623a1.219,1.219,0,0,0,1.219,1.219H36.646v6.546H34.921a.494.494,0,1,0,0,.981H49.548a.488.488,0,0,0,.494-.488.494.494,0,0,0-.494-.494H47.72v-6.57H61.738A1.219,1.219,0,0,0,62.957,61.6V35.939a1.219,1.219,0,0,0-1.219-1.219Z" transform="translate(-21.25 -34.72)" fill="#cccedd" fill-rule="evenodd"/>
      </g>
      <path id="패스_6607" data-name="패스 6607" d="M55.572,77.258A.579.579,0,1,0,55,76.649a.573.573,0,0,0,.579.609" transform="translate(-21.478 -29.718)" fill="#cccedd" fill-rule="evenodd"/>
      <path id="패스_6608" data-name="패스 6608" d="M61.434,40.44H27.467a.451.451,0,0,0-.457.451V60.138a.451.451,0,0,0,.457.451H61.434a.457.457,0,0,0,.457-.451V40.891a.457.457,0,0,0-.457-.451" transform="translate(-10.548 -15.792)" fill="#cccedd" fill-rule="evenodd"/>
      <path id="패스_6609" data-name="패스 6609" d="M70.218,41.064a11.428,11.428,0,1,1-3.347-8.087,11.434,11.434,0,0,1,3.347,8.087" transform="translate(-18.491 -11.571)" fill="#cccedd" fill-rule="evenodd"/>
      <path id="패스_6610" data-name="패스 6610" d="M57.857,29.7A10.587,10.587,0,1,0,68.6,40.3,10.587,10.587,0,0,0,57.857,29.7m0,23.16a12.6,12.6,0,1,1,12.8-12.592,12.6,12.6,0,0,1-12.8,12.592" transform="translate(-17.753 -10.803)" fill="#fff" fill-rule="evenodd"/>
      <path id="패스_6611" data-name="패스 6611" d="M52.705,49.475A9.831,9.831,0,0,1,50.773,35.53a10.251,10.251,0,0,1,14.2-1.9,9.825,9.825,0,0,1,1.914,13.951,10.264,10.264,0,0,1-14.207,1.889M67.5,48.024a10.52,10.52,0,0,0-2.066-14.932A10.971,10.971,0,0,0,50.206,35.1,10.52,10.52,0,0,0,52.26,50.036,10.971,10.971,0,0,0,67.5,48.024" transform="translate(-18.739 -12.065)" fill="#cccedd" fill-rule="evenodd"/>
      <path id="패스_6612" data-name="패스 6612" d="M85.559,63.8l2.164-2.383,12.287,9.295v.414l-2.426,3.444h-.664L85.205,65.632l-.335-.609Z" transform="translate(-33.143 -23.986)" fill="#fff" fill-rule="evenodd"/>
      <g id="그룹_7781" data-name="그룹 7781" transform="translate(26.889 16.329)">
        <path id="패스_6613" data-name="패스 6613" d="M57.363,52.706a12.628,12.628,0,1,1,10.075-4.973,12.628,12.628,0,0,1-10.075,4.973m23.861,8.222L69.461,51.981a.329.329,0,0,1-.128-.262.311.311,0,0,1,.067-.2l1.329-1.743a.347.347,0,0,0-.067-.494.354.354,0,0,0-.494.067l-.719.945L67.486,48.8c.177-.207.347-.421.518-.609a7.052,7.052,0,0,0,.506-.719l2.066,1.572a.39.39,0,0,0,.128.213.366.366,0,0,0,.5-.067l.439-.609a.329.329,0,0,1,.463-.067L83.869,57.46a.329.329,0,0,1,.128.262.311.311,0,0,1-.067.2l-2.243,2.944a.353.353,0,0,1-.268.128.329.329,0,0,1-.2-.067M84.272,56.9,72.539,47.952a1.073,1.073,0,0,0-.609-.213,1.018,1.018,0,0,0-.823.414l-.177.219-2.023-1.536a13.3,13.3,0,1,0-1.877,2.487l2.005,1.53-.183.238a1.054,1.054,0,0,0-.213.609,1.036,1.036,0,0,0,.4.817l11.757,8.947a1.017,1.017,0,0,0,1.438-.2l2.249-2.944a1.042,1.042,0,0,0-.2-1.451" transform="translate(-44.117 -26.792)" fill="#cccedd" fill-rule="evenodd"/>
      </g>
      <path id="패스_6614" data-name="패스 6614" d="M52.262,43.123H68a.433.433,0,0,0,.463-.39A.427.427,0,0,0,68,42.349H52.262a.427.427,0,0,0-.463.384.433.433,0,0,0,.463.39m0,3.1H68a.427.427,0,0,0,.463-.384.433.433,0,0,0-.463-.39H52.262a.433.433,0,0,0-.463.39.427.427,0,0,0,.463.384m0,3.1H68a.4.4,0,1,0,0-.774H52.262a.4.4,0,1,0,0,.774" transform="translate(-20.221 -16.537)" fill="#fff" fill-rule="evenodd"/>
      <rect id="사각형_2790" data-name="사각형 2790" width="73" height="73" transform="translate(0 0.138)" fill="none"/>
    </g>
  </g>
</svg>
