<svg xmlns="http://www.w3.org/2000/svg" width="73" height="73" viewBox="0 0 73 73">
  <g id="icon-solution-04" transform="translate(-26.836 -21.138)">
    <g id="레이어_1" data-name="레이어 1" transform="translate(27 21)">
      <g id="그룹_7798" data-name="그룹 7798" transform="translate(14.786 16.304)">
        <path id="패스_6661" data-name="패스 6661" d="M34.956,74.856h-.92a1.572,1.572,0,0,1-1.585-1.572v-.67h-.043V58.87a.488.488,0,0,0-.969,0V73.186a.329.329,0,0,0,.03.134,1.585,1.585,0,0,1-1.591,1.536h-.9a1.579,1.579,0,0,1-1.591-1.572V61.99a.427.427,0,0,0,0-.085V49.386a.481.481,0,0,0-.488-.475.475.475,0,0,0-.481.475V61.515A1.579,1.579,0,0,1,25.2,59.991V47.3a1.579,1.579,0,0,1,1.591-1.572h6.259l11.982-6.564h0a.993.993,0,0,1,.5-.134,1.03,1.03,0,0,1,.9.512.993.993,0,0,1,.134.5,1.024,1.024,0,0,1-.518.878l-9.477,5.345V73.284a1.579,1.579,0,0,1-1.591,1.572Zm31.9-24.337v1.926a.213.213,0,0,1-.207.207H37.51v-2.34H66.65A.213.213,0,0,1,66.857,50.52ZM30.513,29.84V27.914a.213.213,0,0,1,.207-.207H66.68a.213.213,0,0,1,.207.207V29.84a.207.207,0,0,1-.207.2H30.721A.207.207,0,0,1,30.513,29.84ZM66.65,31a1.17,1.17,0,0,0,1.176-1.158V27.914A1.176,1.176,0,0,0,66.65,26.75H30.721a1.17,1.17,0,0,0-1.176,1.164V29.84A1.17,1.17,0,0,0,30.721,31h.134v1.481a.475.475,0,0,0,.481.475.524.524,0,0,0,.1,0,.475.475,0,0,0,.384-.457V31H65.546V49.356H37.51V46.82l9-5.065a1.975,1.975,0,0,0,1.012-1.713,1.932,1.932,0,0,0-.256-.951,2,2,0,0,0-2.712-.744h0L34.006,44.114l-1.219.658H26.82A2.548,2.548,0,0,0,24.26,47.3V59.991a2.529,2.529,0,0,0,2.164,2.493v10.8h0a2.548,2.548,0,0,0,2.56,2.529H29.9a2.548,2.548,0,0,0,2.078-1.067,2.554,2.554,0,0,0,2.078,1.067h.92a2.548,2.548,0,0,0,2.535-2.529V53.61h7.655L42.045,65.3a.482.482,0,1,0,.933.244L46.165,53.61H48.3V65.8a.488.488,0,0,0,.969,0V53.61h2.151l3.188,11.934a.482.482,0,0,0,.933-.244L52.418,53.61H66.65a1.182,1.182,0,0,0,1.176-1.164V50.52a1.182,1.182,0,0,0-1.176-1.164h-.134V31Z" transform="translate(-24.26 -26.75)" fill="#cccedd" fill-rule="evenodd"/>
      </g>
      <path id="패스_6662" data-name="패스 6662" d="M36.244,60.38l.658-1.64H33.8l.67,1.621-.609,8.045,1.469,1.463,1.548-1.487Z" transform="translate(-13.199 -22.939)" fill="#cccedd" fill-rule="evenodd"/>
      <path id="패스_6663" data-name="패스 6663" d="M33.709,45.756V47.4a.731.731,0,0,1-.171.049,2.048,2.048,0,0,1-.451.049,1.914,1.914,0,0,1-.609-.085h0V45.756l-.354-.11a3.657,3.657,0,0,1-2.4-2.621l-.116-.53L29.1,42.7l-.177.037a.475.475,0,0,1-.481-.469v-.512a.475.475,0,0,1,.481-.469.439.439,0,0,1,.177.037l.524.213L29.754,41a3.84,3.84,0,0,1,1.219-1.987,3.249,3.249,0,0,1,4.212,0A3.846,3.846,0,0,1,36.4,40.99l.134.512.5-.183H37.2a.475.475,0,0,1,.481.469V42.3a.475.475,0,0,1-.481.469.609.609,0,0,1-.165,0l-.5-.177L36.4,43.1a3.657,3.657,0,0,1-2.359,2.548l-.335.1Zm3.535-2.066a1.438,1.438,0,0,0,1.438-1.42v-.512a1.432,1.432,0,0,0-1.451-1.42h0a4.742,4.742,0,0,0-1.414-2.054,4.266,4.266,0,0,0-2.724-.993,3.535,3.535,0,0,0-.366.037,4.2,4.2,0,0,0-2.365.963,4.717,4.717,0,0,0-1.414,2.048h-.043a1.438,1.438,0,0,0-1.457,1.42v.512a1.438,1.438,0,0,0,1.457,1.42h.03a4.6,4.6,0,0,0,2.56,2.743v1.085a.737.737,0,0,0,.25.542,1.383,1.383,0,0,0,.609.3,2.992,2.992,0,0,0,.707.079,2.755,2.755,0,0,0,.926-.146,1.061,1.061,0,0,0,.439-.213.737.737,0,0,0,.25-.542V46.432l.134-.055A4.608,4.608,0,0,0,37.25,43.69Z" transform="translate(-10.72 -14.562)" fill="#cccedd" fill-rule="evenodd"/>
      <g id="그룹_7799" data-name="그룹 7799" transform="translate(29.072 23.042)">
        <path id="패스_6664" data-name="패스 6664" d="M57.446,51.333h3.1V46.719h-3.1Zm5.424.384h3.1v-6.15h-3.1Zm5.04-.384h3.1v-8.07h-3.1ZM54.861,40.484a1.457,1.457,0,0,0,.933.347,1.4,1.4,0,0,0,.884-.311l4.37,2.852a1.457,1.457,0,1,0,2.871.329,1.134,1.134,0,0,0,0-.2l5.449-2.889a1.438,1.438,0,0,0,.987.4A1.481,1.481,0,1,0,68.9,39.533a1.134,1.134,0,0,0,0,.2l-5.449,2.889a1.438,1.438,0,0,0-.987-.4,1.4,1.4,0,0,0-.884.311l-4.37-2.846a1.529,1.529,0,0,0,.037-.335,1.457,1.457,0,1,0-2.907,0,1.4,1.4,0,0,0,0,.274l-4.2,2.511a1.432,1.432,0,0,0-.926-.354,1.481,1.481,0,1,0,1.451,1.481,2.084,2.084,0,0,0,0-.274Z" transform="translate(-47.7 -37.805)" fill="#cccedd" fill-rule="evenodd"/>
      </g>
      <rect id="사각형_2795" data-name="사각형 2795" width="73" height="73" transform="translate(-0.164 0.138)" fill="none"/>
    </g>
  </g>
</svg>
