<svg xmlns="http://www.w3.org/2000/svg" width="73" height="73" viewBox="0 0 73 73">
  <g id="icon-solution-08" transform="translate(-0.069 -3.138)">
    <g id="레이어_1" data-name="레이어 1" transform="translate(0 3)">
      <path id="패스_6647" data-name="패스 6647" d="M42.052,85.664H47.4a.262.262,0,0,0,0-.524H42.052a.262.262,0,1,0,0,.524" transform="translate(-16.32 -33.249)" fill="#fff" fill-rule="evenodd"/>
      <path id="패스_6648" data-name="패스 6648" d="M41.379,84.409h5.187a.238.238,0,0,1,.226.244.232.232,0,0,1-.226.244H41.379a.244.244,0,1,1,0-.488m0,1.219h5.187a.969.969,0,0,0,0-1.938H41.379a.969.969,0,1,0,0,1.938" transform="translate(-15.781 -32.682)" fill="#cccedd" fill-rule="evenodd"/>
      <path id="패스_6649" data-name="패스 6649" d="M66.481,67.44l-.451.427.542-.091.2-.037Z" transform="translate(-25.786 -26.336)" fill="#fff" fill-rule="evenodd"/>
      <path id="패스_6650" data-name="패스 6650" d="M69.31,51.414a.463.463,0,0,1-.658.1L62.77,46.983a.488.488,0,0,1-.091-.67.469.469,0,0,1,.658-.091l5.882,4.547a.482.482,0,0,1,.091.646ZM55.237,48.159l-4.266,6.424a.463.463,0,0,1-.652.128.488.488,0,0,1-.128-.664l4.266-6.424a.469.469,0,0,1,.689-.128.481.481,0,0,1,.091.664ZM67.8,38.694a.481.481,0,0,1-.091.347l-3.114,4.108c-.226.3-.609.786-.823,1.085l-3.748,4.949a1.219,1.219,0,0,1-.957.475,1.158,1.158,0,0,1-.646-.2l-5.15-3.407-1.121-.744-4.126-2.73a.488.488,0,0,1-.14-.664.469.469,0,0,1,.652-.14l4.126,2.73,1.128.774,5.144,3.407.134.037a.25.25,0,0,0,.213-.1l3.748-4.949.823-1.085,3.114-4.114a.469.469,0,0,1,.658-.085.482.482,0,0,1,.171.3l-.1-.609a.2.2,0,0,0-.2-.171h-.037L47.735,41.339a.2.2,0,0,0-.165.2v.037l2.273,13.6a.2.2,0,0,0,.2.171h.037l4.626-.8a20.016,20.016,0,0,0,1.664-1.512l-1.134-1.182,3.657-.945,3.657-.951-.926,3.389,8.216-1.426a.207.207,0,0,0,.171-.207h0l.463-.079-.463.079Z" transform="translate(-18.577 -14.808)" fill="#fff" fill-rule="evenodd"/>
      <g id="그룹_7797" data-name="그룹 7797" transform="translate(15.402 17.443)">
        <path id="패스_6651" data-name="패스 6651" d="M61.254,47.7h0a.2.2,0,0,1-.165.2l-8.277,1.444.939-3.358-3.657.939-3.657.939,1.14,1.17a21.365,21.365,0,0,1-1.7,1.493l-4.663.8h0a.2.2,0,0,1-.2-.171L38.7,37.689h0a.2.2,0,0,1,.171-.2l19.869-3.395h.037a.189.189,0,0,1,.2.165l.1.609a.488.488,0,0,0-.177-.3.469.469,0,0,0-.664.085l-3.139,4.01-.829,1.073-3.779,4.876a.28.28,0,0,1-.213.1l-.134-.012L44.95,41.322l-1.134-.731-4.151-2.7a.475.475,0,1,0-.518.792L43.3,41.389l1.134.737,5.181,3.37a1.182,1.182,0,0,0,.652.2,1.219,1.219,0,0,0,.963-.469l3.779-4.876.829-1.073L58.974,35.2a.469.469,0,0,0,.091-.341l2.188,12.854.463-.079ZM50.442,50.61l-.335.378a19.7,19.7,0,0,1-7.594,4.486A22.734,22.734,0,0,1,35.2,56.943a6.991,6.991,0,0,1-2.407-.347,2.328,2.328,0,0,1-.689-.384,1.073,1.073,0,0,1-.293-.4,2.237,2.237,0,0,0,.786.494,4.559,4.559,0,0,0,1.64.262,13.165,13.165,0,0,0,4.12-.811,27.426,27.426,0,0,0,4.912-2.3,25.324,25.324,0,0,0,5.321-4.1l.323-.335-.646-.677,2.066-.53,2.066-.53-.573,2.06-.573,2.06Zm10.806-1.743a1.164,1.164,0,0,0,.957-1.121,1.109,1.109,0,0,0,0-.2L59.9,34.069a1.152,1.152,0,0,0-1.134-.951,1.049,1.049,0,0,0-.2,0L38.7,36.513a1.152,1.152,0,0,0-.957,1.134,1.012,1.012,0,0,0,0,.2L40.032,51.3a1.152,1.152,0,0,0,1.134.963h.2l2.767-.469a15.456,15.456,0,0,1-1.359.853,26.171,26.171,0,0,1-4.742,2.225,12.568,12.568,0,0,1-3.779.75,3.657,3.657,0,0,1-1.3-.2,1.219,1.219,0,0,1-.652-.5,1.079,1.079,0,0,1-.134-.561,1.286,1.286,0,0,1,0-.213h0a9.794,9.794,0,0,1,2.164-2.17.475.475,0,0,0,.085-.67.469.469,0,0,0-.664-.079,10.629,10.629,0,0,0-2.377,2.4,3.206,3.206,0,0,0-.609,1.78,1.828,1.828,0,0,0,.25.957,1.31,1.31,0,0,0,.3.36h.043a1.749,1.749,0,0,0,.177.189,3.742,3.742,0,0,0,1.5.756,9.143,9.143,0,0,0,2.145.226,23.77,23.77,0,0,0,7.643-1.524,27.957,27.957,0,0,0,4.65-2.164v5.918H28.519V32.508H47.486v.92l.945-.158V31.564H27.574V61.075H48.43V53.609c.421-.28.8-.561,1.158-.847V63.549a1.956,1.956,0,0,1-1.932,1.944h-19.5a1.944,1.944,0,0,1-1.932-1.944V31.515a1.944,1.944,0,0,1,1.932-1.944h19.5a1.956,1.956,0,0,1,1.938,1.944v1.56l.945-.158v-1.4a2.9,2.9,0,0,0-2.883-2.9h-19.5a2.9,2.9,0,0,0-2.883,2.9V63.549a2.9,2.9,0,0,0,2.883,2.9h19.5a2.889,2.889,0,0,0,2.883-2.9V52.274l-.469.079c.14-.122.268-.25.39-.372l.262.262,1,1.03.341-1.262.469-1.658Z" transform="translate(-25.27 -28.62)" fill="#cccedd" fill-rule="evenodd"/>
      </g>
      <path id="패스_6652" data-name="패스 6652" d="M55.916,52.628l-4.449,6.393a.475.475,0,0,0,.128.664.5.5,0,0,0,.683-.128l4.443-6.406a.469.469,0,0,0-.128-.664.494.494,0,0,0-.677.128m8.642-1.268a.481.481,0,0,0-.67.091.463.463,0,0,0,.061.664l6.04,4.48a.488.488,0,0,0,.664-.091.469.469,0,0,0-.1-.664Z" transform="translate(-20.066 -20.015)" fill="#cccedd" fill-rule="evenodd"/>
      <path id="패스_6653" data-name="패스 6653" d="M74.91,79.533h4.65V71H74.91Z" transform="translate(-29.254 -27.727)" fill="#fff" fill-rule="evenodd"/>
      <path id="패스_6654" data-name="패스 6654" d="M79.287,79.656h-4.65a.421.421,0,0,1-.427-.421V70.727a.427.427,0,0,1,.427-.427h4.65a.427.427,0,0,1,.427.427v8.533A.427.427,0,0,1,79.287,79.656Zm-4.224-.847h3.8V71.135h-3.8Z" transform="translate(-28.98 -27.453)" fill="#cccedd"/>
      <path id="패스_6655" data-name="패스 6655" d="M81.9,68.751v8.478l7.753,3.517V65.24Z" transform="translate(-31.983 -25.477)" fill="#fff" fill-rule="evenodd"/>
      <path id="패스_6656" data-name="패스 6656" d="M89.547,80.993a.36.36,0,0,1-.177-.043L81.74,77.47a.427.427,0,0,1-.25-.39V68.694a.421.421,0,0,1,.25-.384l7.631-3.486a.427.427,0,0,1,.609.39V80.567a.427.427,0,0,1-.2.36A.445.445,0,0,1,89.547,80.993Zm-7.2-4.187,6.771,3.1V65.884l-6.771,3.084Z" transform="translate(-31.823 -25.299)" fill="#cccedd"/>
      <path id="패스_6657" data-name="패스 6657" d="M97.28,79.7v-.39a4.12,4.12,0,0,0,0-8.24v-.384a4.51,4.51,0,1,1,0,9.014Z" transform="translate(-37.99 -27.604)"/>
      <path id="패스_6658" data-name="패스 6658" d="M97.28,79.7v-.39a4.12,4.12,0,0,0,0-8.24v-.384a4.51,4.51,0,1,1,0,9.014Z" transform="translate(-37.99 -27.604)" fill="#cccedd"/>
      <path id="패스_6659" data-name="패스 6659" d="M97.28,78.862V78.5a1.755,1.755,0,0,0,0-3.511V74.6a2.145,2.145,0,1,1,0,4.266Z" transform="translate(-37.99 -29.129)"/>
      <path id="패스_6660" data-name="패스 6660" d="M97.28,78.862V78.5a1.755,1.755,0,0,0,0-3.511V74.6a2.145,2.145,0,1,1,0,4.266Z" transform="translate(-37.99 -29.129)" fill="#cccedd"/>
      <rect id="사각형_2794" data-name="사각형 2794" width="73" height="73" transform="translate(0.069 0.138)" fill="none"/>
    </g>
  </g>
</svg>
