<svg xmlns="http://www.w3.org/2000/svg" width="74" height="73" viewBox="0 0 74 73">
  <g id="icon-solution-02" transform="translate(0.466 -0.138)">
    <g id="레이어_1" data-name="레이어 1">
      <g id="그룹_7784" data-name="그룹 7784" transform="translate(11.458 23.483)">
        <path id="패스_6628" data-name="패스 6628" d="M57.581,64.244a.213.213,0,0,1-.2.2H19.946a.207.207,0,0,1-.2-.2V39.67a.207.207,0,0,1,.2-.2H57.38a.213.213,0,0,1,.2.2ZM34.4,71.668h8.673V65.384H34.4ZM57.38,38.53H19.946A1.152,1.152,0,0,0,18.8,39.67V64.244a1.152,1.152,0,0,0,1.146,1.14H33.464v6.284H31.819a.469.469,0,0,0,0,.939H45.782a.469.469,0,0,0,0-.939H44.02V65.384H57.38a1.146,1.146,0,0,0,1.158-1.14V39.67a1.146,1.146,0,0,0-1.158-1.14Z" transform="translate(-18.8 -38.53)" fill="#cccedd" fill-rule="evenodd"/>
      </g>
      <path id="패스_6629" data-name="패스 6629" d="M51.129,78.829a.609.609,0,1,0-.609-.609.609.609,0,0,0,.609.609" transform="translate(-19.729 -30.308)" fill="#cccedd" fill-rule="evenodd"/>
      <path id="패스_6630" data-name="패스 6630" d="M56.873,44H24.723a.427.427,0,0,0-.433.427V62.707a.433.433,0,0,0,.433.433h32.15a.427.427,0,0,0,.427-.433V44.423a.427.427,0,0,0-.427-.433" transform="translate(-9.486 -17.179)" fill="#cccedd" fill-rule="evenodd"/>
      <g id="그룹_7785" data-name="그룹 7785" transform="translate(39.129 22.697)">
        <path id="패스_6631" data-name="패스 6631" d="M64.2,63.868H76.39V37.24H64.2Z" transform="translate(-64.2 -37.24)" fill="#fff" fill-rule="evenodd"/>
      </g>
      <g id="그룹_7786" data-name="그룹 7786" transform="translate(18.327 32.083)">
        <path id="패스_6632" data-name="패스 6632" d="M38.432,55.663a1.707,1.707,0,0,0,1.1.4,1.676,1.676,0,0,0,1.042-.36l5.15,3.3a1.579,1.579,0,0,0-.049.384,1.713,1.713,0,0,0,3.425,0,1.572,1.572,0,0,0,0-.238l6.418-3.346a1.707,1.707,0,1,0-.555-1.249c0,.079,0,.152,0,.232l-6.412,3.346a1.731,1.731,0,0,0-1.164-.457,1.688,1.688,0,0,0-1.042.36l-5.144-3.3a2.067,2.067,0,0,0,.043-.39,1.713,1.713,0,0,0-3.425,0,1.329,1.329,0,0,0,.037.317l-4.979,2.913a1.707,1.707,0,1,0,.609,1.3,1.829,1.829,0,0,0,0-.317Z" transform="translate(-30.07 -52.64)" fill="#fff" fill-rule="evenodd"/>
      </g>
      <g id="그룹_7787" data-name="그룹 7787" transform="translate(38.806 15.597)">
        <path id="패스_6633" data-name="패스 6633" d="M73.44,57.332H65.517a1.091,1.091,0,0,1-1.091-1.085V27.418a1.1,1.1,0,0,1,1.091-1.091H84.063a1.079,1.079,0,0,1,.768.323,1.06,1.06,0,0,1,.317.768V47.781a.36.36,0,0,0,.091.238.372.372,0,0,0,.67-.238V27.418a1.828,1.828,0,0,0-1.828-1.828H65.5a1.828,1.828,0,0,0-1.828,1.828V56.247A1.828,1.828,0,0,0,65.5,58.075h7.923a.384.384,0,0,0,.378-.384.372.372,0,0,0-.091-.238.384.384,0,0,0-.286-.14" transform="translate(-63.67 -25.59)" fill="#cccedd" fill-rule="evenodd"/>
      </g>
      <g id="그룹_7788" data-name="그룹 7788" transform="translate(41.006 19.26)">
        <path id="패스_6634" data-name="패스 6634" d="M80.585,48.026a.536.536,0,0,1-.756-.1.542.542,0,0,1,.079-.762,5.814,5.814,0,1,0-4.937,1.042.543.543,0,1,1-.256,1.054,6.9,6.9,0,1,1,5.851-1.219Zm-1.566-5.9a2.676,2.676,0,1,0-3.657,2.913.542.542,0,1,1-.4,1.006,3.754,3.754,0,1,1,5.107-4.1A.542.542,0,0,1,79,42.126ZM67.28,31.6V56.443h7.533l-.165-.609A1.823,1.823,0,0,1,75.9,53.59V43.674a1.853,1.853,0,0,1,3.706,0V50.8a1.78,1.78,0,0,1,.957-.28,1.828,1.828,0,0,1,1.39.609,1.828,1.828,0,0,1,3.114.567l.1-.067V31.6Z" transform="translate(-67.28 -31.6)" fill="#cccedd" fill-rule="evenodd"/>
      </g>
      <g id="그룹_7789" data-name="그룹 7789" transform="translate(49.685 41.219)">
        <path id="패스_6635" data-name="패스 6635" d="M81.52,67.63Z" transform="translate(-81.52 -67.63)" fill="#43d3e8" fill-rule="evenodd"/>
      </g>
      <g id="그룹_7790" data-name="그룹 7790" transform="translate(46.912 17.675)">
        <path id="패스_6636" data-name="패스 6636" d="M77.208,29.469h4.711a.238.238,0,0,0,.238-.238A.232.232,0,0,0,81.925,29H77.208a.232.232,0,0,0-.238.238.238.238,0,0,0,.238.238" transform="translate(-76.97 -29)" fill="#fff" fill-rule="evenodd"/>
      </g>
      <g id="그룹_7791" data-name="그룹 7791" transform="translate(46.369 17.133)">
        <path id="패스_6637" data-name="패스 6637" d="M76.86,28.652h4.711a.238.238,0,1,1,0,.475H76.86a.238.238,0,0,1-.238-.238.232.232,0,0,1,.238-.238m0,1.018h4.711a.78.78,0,0,0,0-1.56H76.86a.78.78,0,0,0,0,1.56" transform="translate(-76.08 -28.11)" fill="#cccedd" fill-rule="evenodd"/>
      </g>
      <g id="그룹_7792" data-name="그룹 7792" transform="translate(43.189 23.319)">
        <path id="패스_6638" data-name="패스 6638" d="M77.778,38.26a6.9,6.9,0,0,0-1.646,13.6.543.543,0,1,0,.256-1.054,5.821,5.821,0,1,1,4.919-1.042.542.542,0,0,0-.1.762.536.536,0,0,0,.756.1A6.9,6.9,0,0,0,77.76,38.26" transform="translate(-70.862 -38.26)" fill="#fff" fill-rule="evenodd"/>
      </g>
      <g id="그룹_7793" data-name="그룹 7793" transform="translate(46.339 26.452)">
        <path id="패스_6639" data-name="패스 6639" d="M83.5,46.557a3.761,3.761,0,1,0-5.107,4.1.542.542,0,1,0,.4-1.006,2.676,2.676,0,1,1,3.657-2.913.542.542,0,0,0,1.067-.177" transform="translate(-76.029 -43.401)" fill="#fff" fill-rule="evenodd"/>
      </g>
      <g id="그룹_7794" data-name="그룹 7794" transform="translate(48.338 29.481)">
        <path id="패스_6640" data-name="패스 6640" d="M90.22,69.342v4.474H84.04V69.33l-.268-.079a3.047,3.047,0,0,1-1.292-.75,5,5,0,0,1-1.1-1.633,6.308,6.308,0,0,1-.232-.609.478.478,0,0,0-.049-.177v-.049h0l-1.024-3.87a1.109,1.109,0,0,1-.037-.28,1.091,1.091,0,0,1,.811-1.054h.171l.335-.037V50.223a1.1,1.1,0,1,1,2.188,0v8.1l.725.152a1.085,1.085,0,0,1,2.023.091l.36,1.048.39-1.048a1.085,1.085,0,0,1,1.024-.737,1.1,1.1,0,0,1,1.1,1.091v.2l.707.183a1.091,1.091,0,0,1,2.048.518v4.419h0v.847a7.871,7.871,0,0,1-.609,3.565,1.111,1.111,0,0,1-.707.652l-.335.043Zm2.438-5.12V59.8A1.823,1.823,0,0,0,89.9,58.231l-.1.067a1.828,1.828,0,0,0-3.114-.567,1.828,1.828,0,0,0-1.39-.609,1.78,1.78,0,0,0-.957.28v-7.18a1.853,1.853,0,0,0-3.706,0v9.9a1.828,1.828,0,0,0-1.323,1.768,2.115,2.115,0,0,0,.061.475l.165.609.8,3,.049.177a6.461,6.461,0,0,0,.609,1.609,5.1,5.1,0,0,0,.975,1.28,3.9,3.9,0,0,0,1.323.823v4.7h7.686V69.958a2.091,2.091,0,0,0,.945-.939,8.2,8.2,0,0,0,.725-3.937v-.859Z" transform="translate(-79.31 -48.37)" fill="#cccedd" fill-rule="evenodd"/>
      </g>
      <rect id="사각형_2792" data-name="사각형 2792" width="74" height="73" transform="translate(-0.466 0.138)" fill="none"/>
    </g>
  </g>
</svg>
